<?xml version="1.0" standalone="no"?>
<!DOCTYPE svg PUBLIC "-//W3C//DTD SVG 20010904//EN"
 "http://www.w3.org/TR/2001/REC-SVG-20010904/DTD/svg10.dtd">
<svg version="1.0" xmlns="http://www.w3.org/2000/svg"
 width="1280.000000pt" height="793.000000pt" viewBox="0 0 1280.000000 793.000000"
 preserveAspectRatio="xMidYMid meet">
<metadata>
Created by potrace 1.15, written by Peter Selinger 2001-2017
</metadata>
<g transform="translate(0.000000,793.000000) scale(0.100000,-0.100000)"
fill="#DC7621" stroke="none">
<path d="M10110 7906 c-6 -18 -21 -28 -50 -36 -48 -13 -51 -31 -10 -60 36 -26
38 -54 5 -76 -26 -17 -65 -73 -65 -93 0 -14 51 -6 129 20 30 11 67 19 83 19
61 0 128 58 149 130 18 58 3 70 -81 70 -58 0 -73 4 -98 25 -37 31 -50 31 -62
1z"/>
<path d="M8282 7824 c-54 -46 -87 -104 -102 -178 -14 -71 -8 -129 25 -227 58
-169 20 -252 -151 -334 -92 -44 -152 -94 -242 -199 -54 -63 -70 -59 -174 44
-43 44 -83 80 -89 80 -27 0 -1 -49 63 -117 87 -94 113 -147 105 -214 -7 -53
-24 -92 -58 -128 l-23 -25 -6 25 c-3 13 -12 24 -20 24 -12 0 -14 -17 -12 -94
3 -102 -9 -152 -60 -254 -29 -58 -151 -197 -163 -186 -3 4 11 46 32 95 37 86
38 93 38 204 -1 101 -4 126 -31 205 -16 50 -34 90 -39 90 -16 0 -85 -128 -107
-199 -28 -91 -22 -208 17 -319 36 -102 31 -135 -33 -240 -71 -116 -86 -150
-116 -257 -49 -171 -97 -248 -193 -307 -31 -19 -108 -104 -248 -273 -233 -282
-514 -600 -530 -600 -33 0 69 149 190 280 105 112 175 200 175 218 0 7 -11 12
-25 12 -39 0 -49 32 -55 180 -4 111 -8 135 -20 135 -12 0 -16 -27 -21 -160 -9
-222 -15 -235 -200 -447 -118 -136 -141 -161 -172 -186 l-27 -22 20 -40 c11
-21 20 -49 20 -61 0 -29 -95 -152 -175 -227 -109 -103 -215 -151 -384 -177
l-95 -14 -106 -108 c-79 -81 -124 -118 -176 -145 -83 -44 -229 -88 -291 -88
-49 0 -183 27 -197 40 -13 12 29 75 75 111 48 38 48 62 -1 69 -26 4 -36 11
-40 30 -10 44 -34 29 -49 -30 -8 -30 -16 -57 -18 -60 -2 -2 -14 8 -26 24 -19
23 -25 26 -34 14 -8 -10 -9 -27 -1 -61 5 -26 7 -54 5 -61 -8 -21 -102 -49
-138 -41 -47 11 -140 55 -146 71 -5 13 144 251 172 274 11 9 18 2 34 -35 26
-59 44 -54 51 12 4 38 14 62 42 98 50 64 85 88 207 146 121 57 170 92 307 220
117 109 240 203 286 218 18 6 121 15 229 20 107 6 203 13 212 17 9 3 17 14 17
24 0 15 -17 18 -152 23 -169 8 -302 -7 -404 -43 -81 -28 -84 -27 -84 23 0 57
35 128 105 212 73 89 95 133 106 212 21 145 87 216 227 243 80 16 78 36 -4 32
-32 -1 -72 1 -88 6 l-29 8 87 95 c114 123 211 266 195 285 -16 19 -19 16 -146
-141 -59 -74 -110 -132 -114 -130 -3 3 -9 27 -13 54 -3 27 -17 64 -31 82 -92
129 -104 177 -86 356 10 103 16 132 32 149 21 22 66 44 214 105 100 41 180
116 225 211 17 35 30 68 30 74 0 31 -129 21 -215 -16 -70 -30 -164 -130 -208
-220 -44 -91 -47 -69 -7 65 16 55 30 123 30 150 0 28 4 57 9 65 15 23 1 32
-24 16 l-23 -15 1 72 c2 103 -17 167 -65 222 -39 45 -94 82 -105 71 -10 -9
-22 -89 -22 -141 0 -70 26 -137 92 -233 34 -49 57 -93 57 -109 0 -15 -23 -139
-51 -277 -61 -300 -61 -331 0 -566 65 -254 68 -225 -39 -435 -125 -246 -151
-271 -219 -209 -21 18 -52 60 -69 91 -32 62 -114 295 -105 303 2 3 47 7 99 8
67 3 94 8 94 16 0 34 -79 116 -166 173 -18 12 -18 13 -2 23 73 45 108 100 152
237 25 81 26 113 2 113 -23 0 -121 -32 -161 -53 -22 -11 -62 -40 -89 -64 -27
-24 -53 -40 -57 -36 -5 5 -35 47 -66 93 -32 47 -65 86 -74 88 -21 4 -45 -54
-60 -146 -14 -82 5 -169 51 -245 17 -27 30 -51 30 -55 0 -4 -16 -20 -36 -36
-42 -34 -64 -80 -64 -136 0 -57 22 -52 54 13 23 46 78 117 92 117 17 0 66 -34
95 -67 28 -31 48 -77 102 -236 62 -183 76 -237 61 -237 -4 0 -39 12 -78 26
-57 20 -92 26 -175 28 -120 2 -131 9 -131 87 0 31 -5 49 -14 52 -19 8 -36 -12
-36 -42 0 -14 -21 -69 -46 -123 -41 -87 -47 -109 -55 -202 -10 -121 -48 -258
-91 -336 -76 -137 -77 -140 -57 -199 6 -17 8 -43 5 -56 -12 -47 -578 -744
-833 -1027 -83 -92 -181 -202 -217 -245 -106 -127 -149 -154 -389 -243 -85
-32 -143 -48 -148 -43 -6 6 -3 24 6 47 16 37 13 56 -7 56 -6 0 -39 -27 -74
-60 -37 -36 -71 -60 -84 -60 -27 0 -148 115 -189 179 -16 25 -35 65 -42 88
-26 89 -48 95 -247 67 -207 -28 -235 -5 -72 61 211 85 247 85 717 -7 251 -48
245 -50 290 62 35 88 123 207 254 344 108 113 174 156 241 156 55 0 100 25 96
53 -3 25 -7 25 -111 7 -38 -7 -71 -9 -75 -6 -9 10 14 68 90 223 78 158 111
199 209 258 121 72 169 121 139 140 -13 8 -258 -136 -292 -172 -37 -40 -171
-242 -223 -337 -64 -118 -118 -192 -251 -344 -184 -210 -183 -209 -239 -218
-60 -9 -591 22 -635 37 -16 6 -30 15 -30 19 0 4 49 9 108 12 105 3 112 5 193
45 46 23 97 53 114 66 25 21 28 27 16 41 -7 9 -25 16 -40 17 -14 0 -73 10
-131 22 l-105 22 3 30 c15 143 13 186 -13 264 -14 43 -32 87 -40 97 -13 18
-16 17 -60 -26 -95 -93 -124 -214 -91 -377 39 -192 8 -243 -166 -273 -45 -8
-85 -24 -120 -46 -101 -64 -128 -74 -189 -67 -119 12 -208 -39 -277 -158 -43
-76 -80 -107 -217 -184 -66 -37 -145 -85 -176 -105 -30 -21 -84 -50 -119 -65
-56 -23 -68 -25 -104 -16 -23 6 -93 15 -156 21 -146 14 -402 53 -505 78 -50
12 -84 16 -90 10 -14 -13 -19 -496 -6 -531 6 -15 16 -29 23 -31 55 -15 318
-76 329 -76 7 0 65 -25 129 -54 130 -62 247 -90 435 -105 148 -12 290 -38 335
-61 46 -23 89 -73 97 -111 3 -15 14 -36 25 -46 19 -17 21 -16 73 11 80 44 103
39 278 -56 173 -95 172 -93 137 -192 -23 -67 -26 -125 -8 -148 7 -9 62 -35
121 -59 85 -33 110 -40 120 -30 18 18 -29 55 -97 76 -74 23 -91 43 -82 96 7
46 56 148 80 169 16 13 102 11 253 -7 51 -5 53 -7 63 -42 14 -53 28 -152 39
-272 6 -58 13 -112 16 -121 5 -12 28 -17 103 -21 84 -4 118 -12 262 -62 181
-62 315 -121 367 -161 29 -22 165 -193 199 -250 14 -23 44 -12 44 18 0 12 -25
66 -56 121 -49 86 -55 102 -46 123 13 27 100 93 124 94 20 0 161 -149 241
-255 33 -44 88 -139 123 -211 67 -139 87 -165 107 -145 9 9 3 34 -22 109 -51
146 -113 260 -228 414 -90 123 -111 155 -100 159 1 1 58 5 127 10 344 23 340
22 340 55 0 50 -279 105 -401 79 -19 -4 -55 -18 -81 -31 -26 -13 -51 -24 -56
-24 -13 0 -85 156 -78 169 4 6 19 11 34 11 15 0 43 5 62 10 38 12 390 85 479
100 77 13 95 29 126 111 29 75 61 113 173 207 53 44 64 68 37 78 -25 10 -77
-31 -216 -171 -172 -174 -190 -183 -365 -192 -167 -8 -323 3 -331 24 -3 8 2
22 10 31 15 15 24 14 104 -7 97 -24 263 -27 270 -4 6 18 -64 33 -126 27 -38
-4 -76 -1 -116 11 -94 26 -103 28 -129 21 -13 -3 -37 -19 -53 -36 -18 -20 -38
-30 -56 -30 -16 0 -115 22 -220 50 -106 27 -255 61 -331 76 -76 14 -154 32
-171 40 -82 34 -131 104 -141 201 -8 79 -31 129 -71 154 -54 34 -43 47 45 53
306 23 473 64 712 176 162 76 209 87 294 72 100 -19 240 -15 326 9 62 18 113
22 285 26 190 4 226 2 382 -21 259 -39 320 -34 469 39 125 61 130 55 268 -305
105 -273 141 -327 254 -384 68 -35 92 -67 170 -229 38 -78 110 -205 162 -282
89 -133 130 -213 130 -254 0 -10 11 -26 25 -35 18 -12 25 -25 25 -50 0 -18 6
-38 13 -45 24 -20 37 9 37 84 0 82 -24 162 -89 294 -22 47 -41 90 -41 97 0 18
68 26 130 14 115 -21 221 -90 406 -261 121 -113 173 -155 384 -308 107 -79
201 -148 208 -155 9 -9 4 -28 -28 -91 -48 -95 -75 -214 -66 -289 11 -86 15
-87 96 -32 69 47 120 111 120 149 0 27 13 20 52 -26 19 -24 62 -57 94 -74 61
-32 204 -69 230 -59 21 8 17 56 -10 131 -53 147 -121 201 -300 240 -66 15 -87
24 -122 57 -45 42 -62 74 -47 89 14 14 210 50 293 54 345 15 499 50 448 101
-13 13 -20 14 -39 3 -45 -24 -222 -39 -470 -39 -340 0 -321 -7 -581 202 -121
97 -222 187 -254 226 -68 83 -131 127 -216 153 -83 24 -131 64 -154 127 -10
26 -20 50 -23 54 -4 4 -37 -13 -74 -37 -77 -52 -114 -63 -157 -45 -37 15 -54
45 -74 134 -20 86 -34 105 -110 155 -84 54 -169 147 -211 230 -64 129 -125
394 -125 549 0 43 -5 94 -11 116 -13 46 1 114 32 157 10 15 72 60 137 101 66
41 144 100 179 135 84 84 93 88 163 73 55 -12 191 -9 288 6 l44 6 180 -186
c162 -167 290 -282 543 -488 82 -67 112 -110 101 -146 -4 -11 -36 -32 -84 -52
-127 -56 -268 -210 -237 -260 15 -24 163 -1 237 36 54 27 53 28 62 -49 3 -27
15 -69 26 -94 26 -58 147 -185 174 -181 36 6 50 69 51 228 l0 145 120 5 c148
6 153 13 61 97 -100 92 -153 116 -261 121 -49 2 -96 9 -102 14 -20 16 -15 56
8 69 68 36 261 -76 701 -408 119 -90 234 -184 255 -210 56 -68 105 -115 144
-138 32 -19 35 -26 57 -124 26 -118 57 -185 107 -235 56 -57 155 -136 169
-136 13 0 19 52 19 155 0 103 -66 202 -193 286 -61 41 -85 64 -101 97 -19 38
-20 46 -7 58 19 19 257 65 348 67 41 1 109 -2 151 -7 l75 -9 32 40 c21 27 77
66 180 126 188 110 199 113 268 97 l54 -13 60 42 c71 50 152 81 212 81 61 0
122 -33 143 -77 20 -41 22 -29 -71 -343 -61 -208 -72 -287 -51 -361 50 -171
257 -280 424 -223 147 50 224 180 193 327 -43 210 -332 219 -365 11 -10 -57
15 -85 82 -91 45 -5 52 -3 71 22 37 46 58 4 27 -54 -42 -83 -184 -78 -240 8
-41 62 -41 102 0 226 81 245 87 274 94 414 l6 134 85 23 c47 13 124 30 172 38
101 18 159 8 227 -37 82 -55 104 -104 211 -478 32 -113 64 -235 71 -270 7 -35
16 -68 19 -72 15 -17 37 23 44 76 7 61 14 87 26 87 4 0 23 -24 43 -52 20 -29
50 -73 66 -97 18 -25 31 -57 31 -73 0 -16 -17 -68 -37 -116 -40 -92 -80 -140
-168 -202 -67 -47 -95 -103 -95 -190 0 -41 5 -74 14 -85 16 -22 2 -30 135 83
46 39 91 72 99 72 7 0 42 -16 76 -35 84 -47 90 -46 83 13 -8 68 -38 132 -92
192 -55 62 -55 70 6 173 28 47 44 65 53 60 27 -17 159 -171 191 -223 63 -105
78 -167 83 -345 3 -122 0 -176 -12 -228 -22 -93 -21 -127 2 -127 13 0 23 12
31 41 7 22 17 39 23 37 6 -2 25 -45 43 -95 45 -123 59 -148 97 -171 38 -23
156 -58 165 -49 9 9 -44 184 -66 221 -25 39 -72 84 -132 124 -26 17 -59 46
-74 64 -25 29 -27 37 -19 83 22 144 10 265 -42 417 -13 40 -24 77 -24 85 0 7
23 24 50 38 28 14 50 32 50 39 0 20 -35 29 -59 17 -11 -6 -27 -11 -37 -11 -32
0 -224 152 -224 177 0 16 2 16 35 1 19 -8 28 -9 37 0 17 17 -5 38 -73 73 -70
35 -117 81 -157 157 -17 31 -57 86 -88 122 -89 101 -124 196 -124 337 0 55 4
68 25 88 21 21 33 25 89 25 132 0 233 -38 575 -219 104 -54 255 -129 337 -166
241 -109 249 -113 292 -157 87 -89 233 -348 268 -475 26 -95 37 -114 56 -95 9
9 9 27 1 74 -13 74 -6 177 12 185 7 2 38 -7 69 -22 74 -35 106 -86 106 -171 0
-68 -18 -141 -49 -201 -23 -45 -30 -50 -48 -32 -15 15 -43 4 -43 -17 0 -9 9
-32 21 -51 21 -34 22 -39 3 -159 -8 -53 10 -92 33 -73 9 8 13 23 10 37 -6 32
12 84 27 79 6 -2 22 -24 36 -50 19 -36 30 -47 45 -45 16 2 21 12 23 45 3 38
-1 47 -41 90 -55 60 -58 69 -39 118 20 52 110 190 124 190 6 0 20 -34 32 -75
36 -122 70 -177 168 -272 53 -52 98 -88 110 -88 19 0 20 5 16 128 -5 172 -22
202 -181 322 -32 24 -94 82 -138 128 -60 65 -79 92 -79 113 0 22 -5 29 -19 29
-35 0 -36 22 -2 52 45 40 102 38 228 -8 54 -20 113 -38 131 -41 27 -4 32 -2
32 15 0 28 -35 50 -174 112 -145 64 -202 69 -305 27 -61 -25 -65 -25 -103 -10
-41 17 -122 106 -115 127 3 7 25 10 58 9 59 -3 166 15 175 28 7 12 -38 29
-101 39 -228 38 -246 48 -296 155 -68 147 -66 162 27 235 80 65 123 73 208 41
112 -42 214 -15 306 78 59 61 109 146 94 161 -17 17 -127 40 -190 40 -110 0
-204 -50 -274 -145 -22 -30 -50 -60 -63 -67 -24 -13 -152 -35 -263 -44 -113
-10 -227 31 -303 110 -19 20 -48 38 -65 41 -17 3 -146 7 -286 10 -140 2 -284
9 -320 14 -36 5 -119 16 -185 25 -115 16 -155 29 -124 41 74 27 107 35 137 35
40 0 198 -26 254 -42 20 -6 76 -9 125 -6 101 6 162 28 230 84 54 45 157 81
266 96 82 11 243 -2 407 -33 30 -6 90 -12 133 -14 84 -3 76 -6 227 78 36 20
77 37 92 37 34 0 44 16 24 39 -17 19 -21 47 -8 55 5 3 64 -14 133 -37 119 -40
129 -41 238 -40 125 2 154 13 111 41 -14 9 -36 30 -50 46 -64 75 -99 103 -144
116 -25 7 -46 15 -46 17 0 2 25 27 56 55 77 71 107 133 108 227 1 97 -8 103
-102 73 -128 -41 -189 -110 -230 -259 -48 -172 -71 -192 -315 -272 -150 -50
-198 -61 -258 -63 -114 -3 -215 23 -270 70 -29 23 -34 25 -63 13 -53 -22 -180
-61 -197 -61 -24 0 -107 -46 -151 -84 -22 -19 -59 -39 -83 -45 -63 -16 -422
-14 -518 3 -79 14 -126 11 -257 -15 -104 -21 -95 -32 -98 123 -2 112 1 149 18
210 60 218 25 427 -107 635 -74 116 -112 185 -124 225 -22 75 -50 219 -44 228
8 14 48 13 62 -1 23 -23 38 -3 38 52 l0 54 -43 10 c-24 6 -49 19 -54 29 -6 11
-8 55 -6 102 4 76 8 88 40 136 36 53 65 134 53 147 -4 3 -30 6 -58 5 -37 0
-77 -11 -142 -39 -57 -25 -110 -40 -145 -43 -73 -5 -221 34 -339 89 -50 23
-94 40 -97 37 -3 -4 -1 -40 5 -81 6 -41 14 -125 17 -185 l7 -111 -30 -29 c-16
-17 -50 -36 -74 -43 -58 -16 -69 -27 -46 -44 17 -12 17 -14 1 -23 -34 -19 -5
-32 56 -25 l60 6 0 -59 c0 -32 -7 -96 -15 -142 -26 -149 -29 -259 -10 -408 19
-154 21 -138 -43 -289 -49 -117 -64 -189 -69 -342 -6 -152 6 -233 50 -336 22
-53 16 -66 -28 -67 -32 0 -111 -41 -222 -114 -116 -76 -168 -97 -326 -126 -61
-12 -179 -35 -261 -51 -82 -16 -172 -29 -200 -29 -101 0 -198 39 -301 120 -33
26 -114 84 -180 130 -66 45 -149 113 -185 150 -55 57 -74 70 -122 84 -31 9
-64 16 -75 16 -52 1 -173 61 -409 202 -144 86 -279 165 -300 176 -22 11 -51
33 -66 49 -33 35 -228 328 -228 343 0 5 18 17 40 26 33 13 49 32 102 115 35
54 67 99 73 99 11 0 96 -68 246 -196 98 -84 166 -168 333 -411 113 -164 180
-232 270 -274 70 -33 197 -51 210 -31 10 16 -68 69 -125 86 -88 27 -109 48
-123 131 -13 67 -38 103 -251 350 -187 218 -265 298 -351 363 -24 18 -27 23
-14 32 21 15 38 10 180 -53 157 -68 873 -337 900 -337 26 0 25 18 -2 47 -31
33 -22 39 167 113 233 92 297 123 344 165 22 21 41 41 41 46 0 26 -42 14 -191
-51 -457 -201 -459 -201 -639 -125 -164 70 -653 317 -664 336 -10 19 0 69 14
69 6 0 28 -13 51 -29 78 -57 187 -78 309 -60 81 11 94 17 82 35 -11 16 -113
98 -164 133 -27 18 -48 36 -48 40 0 5 20 30 45 56 26 28 53 71 66 104 24 65
52 199 43 212 -8 14 -35 11 -104 -12 -50 -17 -78 -36 -135 -90 -61 -59 -73
-76 -79 -112 -13 -78 -80 -198 -157 -281 -39 -42 -82 -79 -95 -82 -14 -4 -41
3 -70 16 -36 18 -55 38 -91 93 -93 146 -153 176 -462 234 -25 4 -46 14 -49 21
-2 7 12 28 31 47 l35 35 138 0 c137 0 294 21 322 43 7 6 11 17 10 26 -3 13
-24 16 -138 16 -150 1 -213 15 -218 50 -3 24 140 200 409 500 283 317 284 318
322 312 17 -3 59 -15 92 -28 83 -31 175 -31 237 -1 60 30 111 76 106 98 -4 21
-61 42 -153 55 -68 10 -103 6 -233 -28 -21 -5 -20 -1 14 48 52 78 73 99 129
125 69 33 95 31 134 -10 42 -43 70 -50 145 -36 59 11 66 10 191 -28 72 -22
180 -59 240 -82 146 -56 169 -59 242 -25 32 15 96 39 143 55 47 15 142 53 212
83 l128 55 19 -26 c40 -57 69 -130 84 -208 26 -139 91 -242 197 -314 89 -61
90 -60 90 73 0 89 -4 121 -20 154 -26 59 -103 138 -158 164 -51 24 -102 66
-102 84 0 13 84 45 118 45 12 0 50 -12 83 -26 34 -14 64 -22 67 -19 3 3 1 20
-6 37 -10 26 -9 36 4 56 26 40 5 48 -68 26 -91 -28 -189 -24 -263 10 -32 14
-67 26 -79 26 -35 0 -178 -63 -258 -113 -42 -26 -95 -54 -118 -62 -55 -19
-182 -20 -219 -1 -67 35 -65 65 9 150 64 73 76 97 94 186 27 127 69 187 184
262 50 32 76 60 124 129 33 49 86 112 117 141 54 49 137 108 153 108 4 0 23
-17 43 -39 20 -21 57 -46 83 -56 26 -10 57 -27 70 -38 20 -18 26 -19 43 -8 12
7 42 12 67 11 101 -4 103 -3 157 55 58 63 101 80 235 91 41 3 85 13 97 20 34
21 41 18 89 -35 50 -55 115 -91 219 -121 76 -22 130 -26 140 -10 11 18 -82
186 -121 219 -21 17 -36 32 -33 34 2 2 30 16 61 31 41 19 67 41 94 77 43 59
96 181 88 202 -4 12 -24 16 -92 15 -152 -1 -238 -52 -302 -178 -45 -90 -93
-130 -211 -180 -142 -59 -206 -67 -144 -18 26 20 32 42 16 52 -5 4 -30 -9 -54
-28 -110 -84 -162 -91 -334 -47 -147 38 -201 39 -269 7 -62 -29 -240 -196
-295 -277 -43 -64 -111 -127 -147 -136 -27 -6 -45 8 -70 57 -17 34 -46 59 -57
49 -3 -3 -7 -46 -9 -95 -5 -118 -58 -328 -99 -390 -40 -61 -88 -95 -140 -101
-57 -6 -228 22 -289 49 -56 24 -138 110 -138 145 0 13 22 62 50 110 27 47 63
122 79 165 58 149 139 249 353 429 127 107 169 154 217 240 36 64 109 138 167
167 21 11 95 36 163 56 191 57 225 79 335 220 65 84 138 156 157 156 5 0 48
-19 95 -42 65 -31 102 -43 152 -47 83 -7 189 3 267 27 51 15 60 22 60 42 0 17
-15 33 -55 61 -69 48 -145 69 -245 69 -43 0 -75 3 -71 7 4 4 33 17 64 29 168
64 266 104 275 113 5 5 -3 22 -21 42 l-30 34 -49 -24 c-26 -13 -79 -34 -118
-46 -38 -13 -119 -41 -179 -63 -120 -45 -92 -23 -361 -283 -213 -206 -263
-239 -391 -259 -121 -19 -159 -36 -211 -96 -55 -63 -124 -97 -148 -73 -12 12
-9 30 25 131 47 140 79 206 126 258 69 76 407 268 511 290 68 15 123 40 123
58 0 11 -9 13 -42 8 -41 -6 -40 -5 27 28 78 37 178 112 172 129 -6 18 -64 28
-180 31 -59 1 -110 5 -113 9 -3 3 0 37 6 75 8 41 10 92 6 125 -8 63 -68 197
-89 197 -7 0 -32 -16 -55 -36z m158 -573 c0 -5 -35 -18 -77 -30 -67 -18 -79
-19 -92 -6 -12 11 -12 17 -1 29 9 12 32 16 91 16 44 0 79 -4 79 -9z m306
-1141 c32 -6 74 -13 92 -16 41 -6 41 -19 0 -33 -28 -10 -44 -8 -110 16 -112
40 -104 54 18 33z m-3900 -1176 c147 -55 204 -97 204 -152 0 -21 -105 -203
-165 -288 -80 -111 -135 -148 -245 -164 -45 -6 -96 -23 -141 -46 -39 -19 -77
-33 -85 -30 -23 9 -15 48 21 105 56 88 95 233 95 355 0 69 18 120 58 166 70
83 142 98 258 54z m1185 -1166 c52 -26 142 -81 202 -123 91 -65 107 -81 107
-104 0 -67 -151 -257 -220 -277 -27 -8 -50 -6 -103 9 -73 20 -63 21 -279 -20
-20 -4 -63 12 -162 61 -109 53 -149 78 -203 129 l-67 64 33 51 c68 106 226
224 337 251 22 6 89 9 150 8 110 -2 111 -2 205 -49z m-1601 -354 c0 -29 -70
-150 -128 -220 -130 -158 -318 -336 -399 -378 -55 -28 -123 -15 -123 23 0 25
57 158 83 196 12 17 47 56 79 87 59 59 139 174 166 238 8 19 16 37 19 40 4 5
205 26 271 29 23 1 32 -3 32 -15z m415 -60 c301 -38 403 -69 490 -145 38 -34
36 -51 -8 -65 -51 -16 -140 -85 -257 -199 -127 -124 -187 -167 -263 -190 -23
-7 -123 -46 -222 -86 -165 -67 -187 -73 -266 -77 -60 -3 -102 0 -140 11 -58
17 -160 75 -166 93 -2 6 72 105 164 220 92 115 204 263 248 329 44 66 91 125
105 133 27 14 19 14 315 -24z m-2598 -491 c11 -10 25 -42 32 -72 15 -70 39
-102 111 -146 54 -33 81 -67 66 -83 -11 -10 -1050 -1 -1061 9 -6 6 29 45 93
105 66 62 112 114 128 145 l24 49 88 0 c81 0 92 -3 135 -30 26 -16 55 -30 65
-30 9 0 60 16 112 35 108 39 177 45 207 18z m-348 -817 c8 -9 10 -28 6 -49 -8
-39 0 -57 52 -125 31 -41 113 -192 113 -208 0 -26 -245 66 -337 126 -34 22
-84 61 -113 87 -54 48 -140 154 -140 172 0 8 65 11 204 11 164 0 206 -3 215
-14z m9379 -12 c211 -70 479 -253 447 -304 -3 -6 -31 -10 -62 -10 -46 0 -79
10 -196 62 -169 74 -248 126 -294 192 -63 91 -35 107 105 60z m-9201 -66 c52
-35 119 -127 172 -238 54 -110 53 -120 -3 -120 -27 0 -52 7 -65 18 -21 17
-171 341 -171 369 0 16 4 14 67 -29z m526 -555 c16 -8 105 -30 200 -49 94 -20
192 -43 217 -51 109 -37 177 -98 233 -210 53 -105 53 -109 15 -133 -29 -18
-45 -21 -123 -17 -77 3 -103 9 -180 41 -49 21 -140 55 -200 75 -170 58 -197
77 -234 161 -21 48 -52 196 -43 204 8 9 84 -5 115 -21z"/>
<path d="M6530 6981 c-5 -11 -10 -27 -10 -35 0 -13 -12 -16 -57 -16 -97 0 -99
-6 -31 -96 24 -33 36 -57 32 -68 -3 -9 -10 -16 -14 -16 -4 0 -28 -19 -54 -41
-33 -29 -46 -48 -44 -63 4 -25 5 -25 191 -3 161 19 203 41 253 132 41 73 42
97 7 124 -35 29 -63 34 -98 21 -25 -10 -33 -7 -69 20 -23 16 -53 37 -68 45
-25 14 -28 14 -38 -4z"/>
<path d="M11500 6863 c-8 -3 -29 -11 -47 -19 -17 -8 -52 -14 -77 -14 -41 0
-48 -3 -66 -32 -19 -31 -19 -33 -2 -53 10 -11 24 -33 30 -48 19 -45 112 -75
263 -84 62 -4 77 -2 82 11 7 18 -4 31 -56 66 -20 14 -37 30 -37 36 0 5 14 23
30 39 46 44 40 62 -27 80 -32 9 -62 18 -68 19 -5 2 -17 1 -25 -1z"/>
<path d="M10883 6632 c-65 -52 -90 -64 -114 -57 -36 12 -87 -4 -108 -33 l-19
-28 32 -67 c53 -109 74 -125 175 -138 145 -18 187 -25 197 -32 7 -4 33 -4 58
-1 39 6 46 10 46 29 0 17 -17 34 -64 65 -95 61 -95 59 -36 126 27 31 50 65 50
74 0 24 -63 36 -101 19 -37 -15 -64 3 -49 31 14 27 12 50 -4 50 -8 0 -36 -17
-63 -38z"/>
<path d="M9477 5553 c-4 -3 -7 -16 -7 -29 0 -27 -17 -34 -86 -34 -72 0 -71
-16 6 -75 33 -25 60 -48 60 -51 0 -17 -26 -46 -70 -78 -50 -36 -72 -78 -52
-98 13 -13 302 64 350 94 33 20 63 69 76 123 4 17 17 40 29 53 20 21 20 23 4
39 -13 13 -32 17 -81 15 -50 -2 -79 3 -127 23 -63 25 -90 30 -102 18z"/>
<path d="M11715 4600 c-67 -48 -71 -49 -120 -44 -41 5 -60 2 -92 -15 -23 -11
-44 -25 -48 -31 -3 -5 6 -47 20 -94 39 -128 81 -158 240 -171 51 -4 117 -19
182 -40 124 -43 149 -44 157 -10 4 14 4 30 2 34 -3 4 -46 35 -95 67 -50 32
-91 64 -91 70 0 6 34 43 75 81 41 39 75 76 75 82 0 12 -44 32 -64 30 -6 -1
-39 -1 -73 0 l-62 1 -3 42 c-2 28 -8 44 -18 46 -8 1 -46 -20 -85 -48z"/>
<path d="M7947 4153 c-4 -3 -7 -22 -7 -41 l0 -34 -70 7 c-68 7 -70 6 -70 -15
0 -12 18 -44 40 -70 22 -26 40 -52 40 -56 0 -5 -23 -29 -51 -54 -44 -38 -51
-49 -44 -69 6 -19 12 -22 38 -17 18 3 83 10 146 16 156 14 185 28 239 118 23
39 42 75 42 80 0 5 -11 19 -25 32 -21 19 -38 25 -85 26 -51 2 -67 7 -117 43
-62 43 -66 45 -76 34z"/>
</g>
</svg>
