<?xml version="1.0" standalone="no"?>
<!DOCTYPE svg PUBLIC "-//W3C//DTD SVG 20010904//EN"
 "http://www.w3.org/TR/2001/REC-SVG-20010904/DTD/svg10.dtd">
<svg version="1.0" xmlns="http://www.w3.org/2000/svg"
 width="1280.000000pt" height="640.000000pt" viewBox="0 0 1280.000000 640.000000"
 preserveAspectRatio="xMidYMid meet">
<metadata>
Created by potrace 1.15, written by Peter Selinger 2001-2017
</metadata>
<g transform="translate(0.000000,640.000000) scale(0.100000,-0.100000)"
fill="#000000" stroke="none">
<path d="M3971 6280 c-85 -31 -212 -135 -298 -245 -45 -57 -71 -79 -142 -119
-105 -60 -180 -116 -247 -188 -104 -110 -134 -209 -133 -448 0 -147 4 -185 40
-343 12 -52 12 -62 -4 -89 -9 -16 -17 -36 -17 -44 0 -8 23 -65 52 -127 49
-108 51 -116 55 -217 3 -58 -1 -141 -7 -185 -6 -44 -15 -125 -20 -180 l-10
-100 27 -22 c19 -16 41 -23 70 -23 23 0 45 -4 48 -10 3 -5 15 -10 25 -10 33 0
100 152 115 260 14 102 32 148 151 395 46 97 158 243 192 252 15 3 47 24 72
46 25 21 74 56 110 77 73 43 114 83 159 154 29 46 31 56 31 142 0 51 -7 126
-16 166 -11 55 -14 103 -9 193 11 238 8 225 85 303 38 38 77 86 87 107 15 33
28 43 77 62 83 32 87 39 26 52 -29 6 -114 40 -189 75 -200 93 -234 100 -330
66z"/>
<path d="M5460 6284 c-85 -15 -123 -31 -195 -79 -60 -41 -98 -59 -150 -71
-105 -24 -103 -23 -81 -39 10 -8 39 -17 65 -21 101 -14 158 -58 186 -143 8
-21 27 -46 46 -59 71 -49 53 -143 -42 -224 l-49 -41 0 -78 c0 -59 4 -81 16
-91 49 -40 54 -49 54 -90 0 -30 10 -60 32 -98 43 -76 234 -264 338 -332 103
-68 168 -133 294 -297 87 -112 99 -133 127 -220 22 -69 32 -124 36 -193 6
-106 11 -113 63 -83 38 22 112 18 190 -9 38 -14 72 -21 75 -16 2 4 -2 30 -10
56 -25 82 -95 432 -95 475 0 50 22 169 31 169 4 0 35 -85 69 -190 34 -104 66
-190 71 -190 13 0 21 65 15 122 -3 29 -11 134 -16 233 -7 121 -15 186 -25 201
-7 12 -21 48 -30 80 -9 32 -30 103 -47 157 -17 53 -28 100 -25 104 4 3 16 -2
27 -12 19 -18 20 -17 20 4 0 34 -46 163 -85 241 -20 39 -58 95 -85 125 -28 30
-50 58 -50 62 0 3 7 14 15 23 15 16 12 21 -30 58 -25 22 -95 66 -156 97 -104
55 -117 65 -227 182 -92 98 -129 130 -177 153 -59 29 -142 43 -195 34z"/>
<path d="M345 5453 c-29 -7 -55 -33 -55 -55 0 -10 9 -37 21 -59 11 -23 18 -48
15 -56 -5 -12 -12 -11 -42 8 -30 18 -52 22 -124 23 -75 1 -93 -2 -117 -20 -37
-28 -50 -64 -34 -101 20 -48 57 -63 160 -63 106 0 120 -15 40 -43 -41 -15 -53
-25 -65 -54 -39 -93 64 -183 176 -153 23 6 47 21 57 36 10 14 28 37 40 52 l23
27 37 -42 c44 -49 75 -63 144 -63 58 0 84 21 95 74 4 25 12 36 24 36 43 0 197
-141 278 -255 25 -35 26 -37 9 -63 -35 -56 -47 -92 -40 -120 3 -15 38 -59 77
-99 65 -65 75 -72 121 -78 69 -8 74 -12 101 -80 41 -99 164 -478 167 -510 l2
-30 -117 -7 c-88 -5 -126 -12 -157 -27 -104 -53 -101 -151 8 -289 79 -100 157
-114 288 -52 36 16 69 30 74 30 5 0 23 -30 39 -67 46 -102 87 -159 140 -198
27 -20 53 -48 58 -65 13 -35 57 -64 129 -85 84 -25 79 -43 -20 -64 -106 -23
-137 -71 -137 -213 0 -130 19 -151 135 -152 111 -1 138 8 211 75 36 32 72 59
79 59 19 0 31 -20 49 -82 25 -89 92 -132 206 -132 76 -1 133 33 183 105 31 45
39 65 39 103 0 69 -26 104 -107 145 -115 60 -96 81 47 51 194 -41 266 -19 330
98 9 16 69 70 133 118 l117 88 22 -27 c16 -20 31 -27 55 -27 105 0 391 216
422 318 18 60 5 88 -64 140 l-58 44 40 37 c22 21 50 58 61 83 21 49 44 73 59
64 5 -3 22 -26 37 -50 16 -25 39 -50 52 -55 30 -14 103 -14 139 0 66 25 112
100 113 182 0 88 -30 118 -132 132 -49 6 -67 20 -51 36 6 6 51 16 100 24 102
15 139 31 176 75 54 63 42 151 -25 186 -28 14 -42 15 -112 5 -105 -15 -142
-34 -195 -104 -29 -39 -47 -55 -54 -48 -19 19 5 62 86 153 172 195 278 282
602 500 423 283 610 346 783 262 75 -37 185 -148 288 -295 139 -197 234 -340
234 -353 0 -7 -27 -34 -60 -59 -104 -81 -112 -119 -40 -188 74 -70 164 -96
265 -76 l40 8 95 -138 c52 -76 132 -185 178 -242 l83 -104 -20 -48 c-12 -26
-21 -54 -21 -62 0 -40 91 -79 218 -92 51 -6 62 -10 60 -24 -2 -12 -18 -17 -68
-21 -80 -7 -99 -17 -150 -81 -44 -56 -51 -93 -23 -135 39 -59 156 -84 219 -45
17 11 48 47 68 80 26 42 44 61 57 61 19 0 20 -5 14 -67 -7 -67 -6 -68 26 -102
41 -41 65 -51 154 -65 l70 -12 118 -129 c152 -166 254 -301 306 -405 34 -69
41 -92 41 -141 0 -33 -6 -74 -13 -92 -15 -35 -79 -98 -124 -120 -116 -59 -300
-45 -578 44 -124 39 -125 40 -164 93 -77 104 -125 125 -208 91 -70 -29 -81
-12 -36 57 18 26 27 54 27 77 0 46 -41 129 -75 154 -26 19 -29 19 -79 2 -93
-31 -118 -63 -156 -202 -6 -24 -32 -13 -45 18 -23 57 -57 89 -94 89 -19 0 -44
-4 -58 -9 -19 -7 -53 3 -173 53 -422 178 -773 276 -983 276 -56 0 -67 3 -97
29 -62 55 -135 64 -210 26 -80 -41 -82 -39 -58 67 17 73 -157 118 -236 59 -38
-28 -37 -66 5 -135 19 -32 35 -65 35 -72 0 -22 -24 -16 -50 11 -13 14 -40 29
-59 35 -48 13 -148 12 -190 -3 -75 -26 -98 -113 -45 -168 40 -42 88 -52 181
-39 50 7 80 7 86 1 15 -15 -9 -38 -45 -47 -17 -3 -52 -25 -77 -48 -25 -23 -64
-57 -86 -75 -22 -18 -143 -129 -270 -246 -352 -326 -443 -396 -639 -491 -111
-54 -175 -71 -183 -47 -2 6 15 20 39 31 24 10 51 29 62 40 62 71 -106 171
-194 115 -16 -10 -50 -47 -75 -81 -25 -34 -50 -62 -56 -62 -7 0 -8 19 -4 55
l7 56 -42 39 c-52 48 -97 64 -162 58 -52 -5 -89 -27 -122 -71 -28 -38 -13 -72
57 -125 31 -24 57 -50 57 -58 0 -18 -1 -18 -80 2 -52 13 -73 14 -106 5 -61
-16 -118 -62 -142 -114 -12 -25 -30 -48 -40 -51 -34 -11 -646 -116 -675 -116
-16 0 -42 10 -59 21 -18 13 -53 24 -86 28 -30 3 -57 11 -59 17 -2 7 14 26 37
44 30 24 40 39 40 60 0 58 -92 129 -167 130 -40 0 -61 -28 -78 -103 -14 -61
-39 -76 -50 -28 -8 36 -57 82 -125 116 -60 31 -81 31 -131 3 -62 -35 -71 -106
-21 -162 9 -10 40 -29 67 -43 59 -30 87 -52 79 -64 -3 -5 -36 -6 -74 -3 -78 8
-108 -5 -135 -55 -41 -81 -21 -152 54 -191 54 -27 98 -25 143 5 62 42 78 32
78 -52 0 -35 7 -54 30 -83 34 -43 90 -73 117 -63 56 21 133 109 133 152 0 13
-10 39 -21 58 -29 46 -15 57 45 37 44 -15 50 -15 93 1 25 10 63 33 84 52 l39
35 287 29 c159 16 346 36 416 44 71 8 149 15 173 15 40 0 44 -2 44 -24 0 -67
44 -116 104 -116 45 0 148 44 204 87 32 24 34 28 27 69 -8 54 6 62 61 39 52
-22 86 -21 170 4 77 23 104 44 104 82 0 21 14 31 97 73 233 115 552 346 882
636 97 85 106 90 135 83 90 -23 163 5 196 74 29 62 46 64 88 13 44 -53 84 -70
161 -70 55 0 62 3 78 27 23 35 31 166 12 190 -8 9 -33 25 -56 35 -42 18 -60
35 -50 44 14 14 131 33 203 34 116 0 273 -52 354 -118 l25 -20 -20 -38 c-26
-50 -139 -145 -301 -254 -135 -92 -654 -411 -688 -424 -13 -4 -26 0 -41 14
-34 32 -86 36 -139 11 -46 -23 -116 -91 -116 -114 0 -30 42 -76 91 -101 78
-38 144 -33 197 17 18 17 23 30 20 62 -2 35 1 41 22 50 14 5 79 37 145 70 164
82 255 120 264 109 15 -15 33 -83 26 -94 -5 -8 -14 -7 -28 3 -54 35 -114 26
-165 -24 -42 -41 -44 -88 -4 -119 23 -19 35 -21 79 -16 56 7 82 -9 48 -28 -51
-29 -75 -64 -75 -108 0 -54 31 -108 62 -109 63 -3 90 12 116 67 25 50 39 50
66 -1 23 -42 81 -65 119 -48 27 13 47 70 47 136 0 39 -4 49 -30 67 -37 27 -35
39 10 54 37 12 79 79 80 128 0 51 -83 75 -141 41 -39 -23 -52 -9 -37 40 10 33
9 41 -11 67 -12 17 -19 35 -16 40 3 5 92 58 198 118 359 205 414 226 577 226
103 0 125 -3 213 -33 68 -22 110 -43 136 -66 43 -39 69 -51 166 -74 48 -11 70
-21 70 -31 0 -11 -13 -15 -50 -16 -27 0 -59 -1 -71 -2 -56 -5 -186 -133 -198
-194 -8 -39 24 -111 58 -133 15 -10 45 -20 69 -22 54 -6 91 18 170 112 32 39
64 71 71 73 25 6 25 -25 0 -78 -13 -28 -24 -64 -24 -80 0 -57 74 -131 145
-144 81 -15 172 43 197 125 10 36 9 48 -6 88 -10 25 -19 57 -20 71 l-1 25 100
-4 c83 -3 139 -14 325 -63 696 -183 1514 -381 1885 -455 190 -38 190 -38 400
-34 387 7 500 5 560 -6 33 -7 146 -17 250 -23 105 -6 263 -17 353 -26 155 -14
172 -14 340 6 133 15 241 20 425 20 l248 0 57 29 c77 39 232 96 317 117 39 9
71 18 72 19 6 4 -61 161 -73 174 -12 13 -32 13 -141 3 -354 -33 -1004 -81
-1123 -83 -207 -2 -205 -3 -238 31 -39 39 -46 75 -22 125 15 29 16 41 8 46 -7
4 -105 5 -219 2 -144 -4 -231 -2 -285 6 -96 16 -241 61 -311 99 -33 17 -150
119 -317 275 -302 284 -291 267 -320 467 -42 278 -96 502 -184 762 -22 64 -38
119 -34 122 3 3 18 6 34 6 17 0 39 10 53 25 21 21 25 33 25 88 0 76 -18 106
-81 131 -22 9 -39 22 -37 28 2 6 25 17 50 25 54 15 61 23 82 86 20 60 11 81
-47 108 -54 24 -113 24 -160 -1 -20 -11 -44 -20 -53 -20 -17 0 -16 14 2 77 8
27 -31 69 -73 78 -15 4 -38 8 -50 11 -18 3 -97 97 -175 209 -4 5 -9 7 -12 4
-3 -2 15 -49 40 -102 49 -109 51 -118 29 -151 -18 -28 -11 -55 35 -121 17 -24
30 -48 30 -54 0 -16 -26 -13 -41 5 -25 30 -68 44 -137 44 -117 0 -152 -22
-152 -95 0 -29 8 -45 34 -71 37 -37 46 -39 169 -35 62 3 77 0 77 -12 0 -8 -20
-22 -45 -32 -58 -22 -79 -53 -72 -105 9 -68 64 -125 127 -130 65 -6 84 0 120
39 42 44 60 40 60 -14 0 -18 18 -81 39 -141 103 -289 147 -597 100 -697 -14
-30 -55 -57 -87 -57 -48 0 -148 66 -250 164 -205 197 -444 512 -631 829 -184
314 -198 383 -187 947 3 190 8 390 11 445 l6 100 -25 -46 c-47 -88 -70 -211
-85 -466 -6 -94 -15 -183 -21 -197 -9 -26 -11 -26 -116 -26 -103 0 -106 -1
-135 -29 -17 -18 -29 -40 -29 -56 0 -41 -25 -40 -98 3 -37 22 -70 37 -73 34
-4 -4 -9 -37 -12 -73 l-4 -66 56 -44 c152 -117 291 -233 337 -281 116 -119
292 -368 526 -743 203 -325 478 -786 478 -801 0 -22 -30 -17 -69 13 -20 15
-92 79 -161 143 -153 142 -188 168 -237 182 -49 13 -199 112 -330 216 -106 84
-216 205 -211 232 3 12 20 15 89 15 79 0 88 2 123 29 78 59 71 93 -39 171 -81
58 -123 66 -190 36 -61 -27 -76 -17 -52 34 24 51 21 71 -19 126 -58 79 -104
94 -180 60 -52 -24 -84 -64 -84 -107 0 -26 -4 -34 -17 -33 -19 0 -182 181
-284 314 -91 120 -99 127 -131 120 l-28 -7 -1 74 c0 69 -15 178 -18 131 -3
-66 -50 -26 -136 117 -104 175 -235 407 -235 419 0 6 6 11 13 11 17 1 -29 38
-98 80 -70 42 -256 224 -308 301 -38 55 -40 57 -140 90 -91 30 -114 34 -207
34 -165 -1 -300 -49 -481 -170 -52 -36 -98 -65 -101 -65 -3 0 -19 22 -36 49
-32 52 -62 77 -100 83 -21 3 -24 -1 -27 -38 -5 -59 -28 -99 -107 -180 l-69
-72 28 -19 c15 -11 36 -23 46 -26 28 -10 20 -30 -39 -87 -31 -30 -110 -115
-176 -187 l-119 -133 -74 7 c-52 4 -79 2 -89 -6 -27 -22 -105 -224 -117 -301
-19 -126 -95 -298 -126 -286 -17 7 -53 -28 -54 -51 -2 -56 -16 -84 -93 -190
-134 -185 -161 -214 -324 -352 l-154 -130 -111 2 c-122 2 -142 -4 -219 -66
-33 -26 -58 -30 -58 -8 0 5 30 42 66 82 132 146 130 206 -6 254 -62 22 -167
22 -214 0 -58 -28 -79 -85 -58 -160 10 -33 6 -55 -9 -55 -6 0 -31 16 -56 35
-25 19 -68 42 -95 50 -137 40 -275 205 -415 495 -52 108 -263 577 -263 585 0
2 32 25 71 51 118 78 251 251 234 305 -4 13 -29 31 -63 48 -52 24 -67 26 -182
26 -105 -1 -134 -4 -180 -23 -30 -12 -58 -22 -61 -22 -3 0 -34 36 -69 80 -76
98 -185 187 -292 241 -44 22 -78 43 -76 48 2 4 16 32 32 63 18 33 27 62 23 72
-9 23 -84 56 -129 56 -20 0 -58 -9 -84 -20 -26 -12 -51 -17 -56 -12 -5 5 -2
25 7 45 18 43 12 63 -26 82 -27 14 -111 18 -154 8z"/>
<path d="M9978 4968 c-8 -18 -23 -59 -32 -90 -23 -81 -54 -114 -133 -138 -36
-11 -80 -20 -99 -20 -57 0 -139 37 -181 82 -74 79 -88 91 -148 119 -70 34
-121 38 -129 11 -11 -34 24 -133 77 -215 l52 -82 -3 -97 c-5 -185 41 -305 143
-370 33 -22 63 -47 67 -56 12 -31 8 -86 -13 -162 -15 -56 -18 -91 -14 -140 19
-203 70 -345 268 -747 84 -171 119 -266 196 -538 88 -308 92 -401 21 -490 -17
-21 -30 -42 -30 -47 0 -6 -9 -21 -20 -35 -24 -30 -25 -63 -5 -102 24 -47 58
-54 223 -47 354 16 755 46 1110 82 84 9 160 13 168 10 52 -20 181 -426 234
-739 64 -376 45 -596 -60 -691 -78 -71 -238 -93 -348 -48 -69 29 -145 29 -172
2 -58 -58 25 -206 150 -270 234 -118 512 -17 634 232 68 137 80 206 80 438 0
171 -3 225 -22 325 -27 142 -84 363 -147 570 -59 194 -63 224 -37 267 31 51
52 135 52 209 0 97 -28 390 -46 483 -43 223 -233 549 -458 785 -150 157 -334
285 -647 450 -246 129 -293 161 -359 246 -26 33 -66 74 -91 92 -93 66 -105 83
-124 168 -14 63 -17 104 -12 209 7 143 -5 231 -42 304 -40 79 -77 93 -103 40z"/>
<path d="M12665 2950 c-125 -61 -261 -170 -744 -600 l-54 -48 7 -69 c8 -84 -5
-159 -43 -239 -25 -53 -28 -68 -20 -105 4 -24 8 -47 9 -51 1 -32 155 64 237
148 56 57 129 98 320 178 102 43 344 187 401 239 22 20 22 23 22 309 0 268 -1
288 -17 287 -10 0 -63 -22 -118 -49z"/>
</g>
</svg>
