<svg width="25" height="25" viewBox="0 0 25 25" fill="none" xmlns="http://www.w3.org/2000/svg">
<path d="M17.474 4.05841L21.3889 8.46357C21.5538 8.64915 21.5538 8.95194 21.3889 9.13753L11.9097 19.8037L7.88194 20.3067C7.34375 20.3751 6.88802 19.8623 6.94878 19.2567L7.39583 14.7246L16.875 4.05841C17.0399 3.87283 17.309 3.87283 17.474 4.05841ZM24.5052 2.94003L22.3872 0.556749C21.7274 -0.185583 20.6554 -0.185583 19.9913 0.556749L18.4549 2.2856C18.2899 2.47119 18.2899 2.77398 18.4549 2.95956L22.3698 7.36472C22.5347 7.5503 22.8038 7.5503 22.9688 7.36472L24.5052 5.63587C25.1649 4.88865 25.1649 3.68236 24.5052 2.94003ZM16.6667 16.9027V21.8744H2.77778V6.24634H12.7517C12.8906 6.24634 13.0208 6.18285 13.1207 6.07541L14.8568 4.1219C15.1866 3.75073 14.9523 3.12073 14.4878 3.12073H2.08333C0.93316 3.12073 0 4.17074 0 5.46493V22.6558C0 23.95 0.93316 25 2.08333 25H17.3611C18.5113 25 19.4444 23.95 19.4444 22.6558V14.9492C19.4444 14.4266 18.8845 14.1678 18.5547 14.5341L16.8186 16.4876C16.7231 16.5999 16.6667 16.7464 16.6667 16.9027Z" fill="#FBF5EF"/>
</svg>
