<?xml version="1.0" encoding="UTF-8"?>
<svg id="logo" xmlns="http://www.w3.org/2000/svg" viewBox="0 0 240.31 146.44" width="80">
  <defs>
    <style>
      .cls-1 {
        fill: #fff;
      }

      .cls-1, .cls-2, .cls-3, .cls-4 {
        stroke-width: 0px;
      }

      .cls-2 {
        fill: #d1935b;
      }

      .cls-3 {
        fill: #4f2e14;
      }

      .cls-4 {
        fill: #502f15;
      }
    </style>
  </defs>
  <g>
    <path class="cls-2" d="m191.43,31.88c-.18-11.03-.29-20.11-3.64-28.79-1.38-3.57-1.77-3.88-5.02-1.77-11.73,7.59-22.92,15.9-33.17,25.42-2.51,2.33-4.68,3.41-8.32,2.03-10.61-4.01-21.69-3.06-32.69-2.17-5.6.45-11.1,1.92-16.77,1.62-1.1-.06-2.14-.07-2.94-1-4.67-5.42-10.51-9.49-16.09-13.86-5.89-4.61-11.97-8.96-18.72-12.27-3.35-1.64-4.49-1.08-5.1,2.5-1.12,6.6-2.73,13.12-2.77,19.88-.05,8.34-.05,16.63,2.94,24.62,2.69,7.18,3.19,14.29.45,21.81-2.29,6.3-2.87,13.04-1.74,19.83,2.13,12.77,7.67,23.11,19.72,29.2,14.37,7.26,29.53,11.4,45.63,12.02,9.76.38,19.39-.5,28.89-2.78,9.17-2.2,18.12-4.95,26.11-10.17,6.65-4.35,12.63-9.43,16.51-16.51,5.57-10.18,6.07-21.09,3.62-32.12-1.27-5.73-1.43-11.19.04-16.86,1.9-7.38,3.78-14.81,3.05-20.65Z"/>
    <path class="cls-2" d="m240.3,60.13c-.14-.83-1.01-.39-1.73-.58-.82.16-1.84.24-2.78.54-11.11,3.62-22.16,7.4-32.67,12.57-1.3.64-3.79,1.16-2.8,3.17.88,1.79,2.96.52,4.34-.09,7.81-3.46,15.82-6.37,23.78-9.43,3.65-1.4,7.13-3.24,10.68-4.91.54-.25,1.28-.63,1.17-1.28Z"/>
    <path class="cls-2" d="m33.82,72.96c-1.92-.79-3.84-1.56-5.77-2.29-8.54-3.24-17.29-5.91-25.65-9.63-.66-.29-1.45-1.06-2.05-.37-.68.77-.22,1.76.32,2.55.53.78,1.29,1.3,2.11,1.76,8.47,4.72,17.66,7.46,27,9.75,1.96.48,4.03.52,6.12-.02-.45-1.2-1.31-1.42-2.06-1.74Z"/>
    <path class="cls-2" d="m31.47,94.53c-9.38,2.12-18.74,4.33-28,6.92-.4.11-.93.19-1,.84.49.67,1.24.43,1.88.45,3.87.13,7.64-.29,11.42-1.27,4.69-1.21,9.49-1.96,14.24-2.93.83-.17,1.64-.41,2.44-.68,1.17-.39,1.86-1.19,1.51-2.45-.38-1.36-1.58-1.07-2.49-.87Z"/>
    <path class="cls-2" d="m200.55,100.14c2.47,1.28,5.07,2.13,7.83,2.64,7.4,1.35,14.87,2.38,21.96,5.09.81.31,1.59.94,3.25.37-10.87-7.28-23.27-6.92-34.75-9.93.25,1.08.99,1.46,1.71,1.84Z"/>
    <path class="cls-2" d="m10.98,81.97c4.55,4.2,19.16,4.89,23.23.84-8,.57-15.4-1.26-23.23-.84Z"/>
    <path class="cls-2" d="m202.91,88.71c.38-.03.76-.14,1.14-.19,3.05-.38,6.06-1.08,9.16-1.12.86,0,2.39.7,2.51-.7.13-1.51-1.41-1.79-2.65-1.98-.45-.07-.92-.01-1.38-.01,0-.05,0-.09-.01-.14-3.12.44-6.24.86-9.36,1.33-1.12.17-2.78.28-2.54,1.7.24,1.44,1.91,1.21,3.14,1.11Z"/>
  </g>
  <g>
    <path class="cls-1" d="m148.41,54.82c.5.02,1.02-.02,1.5.07,1.26.23,1.9,1,1.97,2.11.07.97.11,1.95.03,2.93-.22,2.93-.47,5.87-.8,8.8-.12,1.11-.41,2.23-.75,3.33-.35,1.14-2.11,1.71-3.32,1.36-.78-.23-1.73-.13-2.61-.08-1.69.09-3.37.26-5.06.39-.69.05-1.37.1-2.06.15-1.37.1-1.98-.33-2.29-1.53-.15-.6-.12-1.25-.17-1.88-.08-.02-.15-.04-.23-.06-.38.47-.78.93-1.15,1.41-.98,1.28-2.26,2.21-3.92,2.68-.64.18-1.16.1-1.64-.3-1.23-1.01-2.07-2.27-2.74-3.62-.29-.57-.68-.53-1.2-.53-.53,0-1.07,0-1.57-.1-.7-.16-1.36-.42-2.15-.67,1.19-1.42,2.71-2.7,4.37-3.97-1.44-.47-2.85-.93-4.38-1.44,1.56-1.08,3-2.08,4.58-3.16-1.19-.41-2.27-.79-3.43-1.19.53-.37,1.07-.75,1.62-1.12.55-.37.89-.63.4-1.31-.96-1.34-1.59-2.82-1.22-4.58.23-1.12,1.18-1.64,2.16-.98,1.09.73,2.09,1.56,3.12,2.34.19.26.33.56.58.75.18.14.51.12.78.17.07-.21.23-.44.18-.62-.09-.32-.3-.6-.45-.89-.09-.58-.19-1.17-.29-1.79-1.21-.25-2.74.37-3.79-.51-.93-.78-1.71-1.7-2.64-2.65,1.39-.45,2.69-.79,3.91-1.29,1.8-.73,3.56-1.54,5.29-2.39.43-.21.7-.71,1.08-1.1,1.05.4,2.28.74,3.34,1.3,1.38.73,1.39,2.69,0,3.67-1,.71-2.18,1.22-3.53,1.95.29.19.59.4.9.6.22.13.46.25.68.37.14-.21.29-.42.48-.7.5,0,1.09.04,1.67-.02.21-.02.54-.24.6-.41.25-.77.43-1.55.65-2.41.23,0,.52,0,.8,0,1.22,0,1.2.15,1.27-1.09.04-.64.02-1.28.03-2.12,1.13-.06,2.41-.19,3.68-.18,1.05,0,1.55.84,1.43,2.1-.06.67.19.89.9.69.21-.06.49-.34.5-.51.06-.85.03-1.7.04-2.69.49-.12,1.11-.33,1.73-.4.69-.08,1.4-.12,2.07-.02,1.04.14,1.55.84,1.39,1.96-.11.8.02,1.31.88,1.71,1.61.76,1.64,2.16,1.02,3.49-.33.7-1.05,1.02-1.83,1.2-.36.09-.62.21-.7.64-.16.84-.84,1.35-1.72,1.65-.9.23-1.74.16-2.54-.19-.21-.36-.35-.76-.64-1.07-.17-.19-.56-.33-.84-.3-.33.03-.84.21-.95.44-.62,1.24-2.45,1.95-3.68,1.29-.59-.32-1.04-.83-1.54-1.26-.6.59-1.23,1.28-1.95,1.88-.72.6-1.54,1.12-2.27,1.64.65.97,1.3,1.95,1.95,2.93.25-1.13.36-2.23.44-3.33.03-.47.22-.74.79-.83.89-.14,1.8-.54,2.61.08.13.1.39.11.59.1.63-.03,1.26-.07,1.89-.15.96-.12,1.91-.29,2.87-.43,1.07-.1,2.15-.2,3.22-.3Zm-18.02,7.35c-.58.36-1.1.69-1.63,1.01-.45.27-.43.44.06.59.43.12.84.29,1.38.49.06-.7.12-1.34.18-2.09Zm16.25-.39c.11-.63.22-1.2.32-1.79h-1.16c-.43,1.67-.35,1.83.84,1.79Zm-20.1,7.02c1.6.23,2.97-.85,2.78-1.95-.88.61-1.76,1.23-2.78,1.95Zm19.71-2.21c-.06-.07-.12-.14-.17-.21-.32.15-.78.25-.93.48-.18.29-.17.7-.1,1.04.03.18.34.4.54.4.16,0,.48-.27.53-.45.11-.41.1-.84.13-1.26Zm-5.62,1.17s-.06-.02-.09-.02c.01-.12.01-.23.03-.35.06-.39-.05-.64-.56-.63-.5,0-.56.29-.57.62,0,.26-.06.52-.06.77,0,.4.52.68.84.42.22-.18.27-.53.4-.8Zm.47-6.41c.07-.33.13-.68-.48-.69-.55,0-.62.28-.61.65,0,.34-.17.74.45.77.6.03.65-.31.64-.74Zm-13.21-1.85c.79.34,1.49.63,2.32.98-.45-1.33-1-1.55-2.32-.98Z"/>
    <path class="cls-1" d="m104.22,68.39c-.4,1.32-.66,2.61-1.18,3.81-.61,1.38-1.63,2.52-3.33,3.08-.73.24-1.3.07-1.79-.29-1.87-1.39-3.25-3.14-4.38-5.05-.29-.49-.55-1.01-.8-1.52-.22-.46-.5-.44-.91-.1-.28.24-.59.47-.92.64-1.53.77-3.03.31-3.39-1.17-.21-.85-.2-1.8-.04-2.69.24-1.31.68-2.6,1.07-3.9.4-1.33.87-2.65,1.26-3.99.34-1.17.68-2.34.9-3.52.18-.92.2-1.84.25-2.77.01-.25-.1-.49-.2-.91,1.36-.04,2.71-.21,4-.09,1.09.1,1.73,1.04,1.58,2.03-.38,2.53-.75,5.06-1.29,7.57-.43,2-1.12,3.97-1.71,5.95-.11.36-.34.7-.57,1.15,1.16.49,2.2,1.23,3.62,1.36.49.04.66-.2.72-.53.19-1.07.41-2.14.51-3.21.42-4.72.82-9.44,1.17-14.15.09-1.15,0-2.31-.94-3.27,1.34-.33,2.62-.82,3.9-.92,2.17-.17,3.73.8,3.7,2.96,0,.26.09.51.16.84.38-.13.74-.19,1.02-.36,2.64-1.61,4.92-.39,6.01,1.22,1.05,1.55,1.62,3.27,1.77,5.13.1,1.17.38,2.32.39,3.5.01,1.32-.12,2.66-.31,3.99-.16,1.14-.41,2.29-.75,3.41-.53,1.78-1.68,3.24-3.56,4.13-1.9.91-2.92,1.03-4.32-.59-.44-.51-.84-1.04-1.28-1.55-.09-.1-.27-.14-.36-.18Zm1.51-16.95c-.07.06-.14.12-.22.17.02.3.08.6.05.9-.32,3.73-.62,7.45-1.01,11.18-.08.78.22,1.12.93,1.36.77.26,1.32.09,1.63-.63.26-.63.54-1.28.59-1.93.11-1.51.07-3.02.13-4.53.1-2.2-.66-4.16-1.61-6.06-.09-.19-.32-.31-.49-.47Z"/>
    <g>
      <path class="cls-1" d="m76.23,86.76c-1.91-.06-2.46-2.2-1.92-3.4.2-.45.45-.89.64-1.34.1-.24.14-.49.23-.82.26,0,.58.02.9,0,2.27-.13,4.54-.27,6.81-.39,1.77-.1,3.53-.17,5.3-.29,1.38-.09,2.78-.29,4.16-.34,1.8-.07,3.61-.11,5.38-.02,1.01.05,1.71,1.3,1.56,2.39-.21,1.52-.94,2.26-2.93,2.66-1.59.32-3.2.49-4.81.69-.66.09-1.32.12-1.97.14-.57.02-.81.26-.72.81.95-.07,1.92-.13,2.9-.2,1.83-.14,3.63-.15,5.28.36,1.62.5,2.12,1.75,1.94,3.21-.44,3.51-.94,7.02-1.57,10.53-.29,1.64-.67,3.33-1.71,4.89-.77,1.15-1.75,2.15-3.19,2.71-.6.24-1.08.22-1.55-.12-1.11-.8-1.69-1.93-2.33-3.04-.24-.42-.41-.88-.67-1.29-.09-.14-.38-.27-.57-.24-.51.1-1.01.28-1.5.43-.25.72-.49,1.5-.8,2.28-.43,1.06-1.4,1.65-2.72,1.77-.94.09-1.39-.52-1.64-1.15-.22-.55-.2-1.21-.29-1.82-.02-.14.02-.36-.07-.42-.85-.54-1.04-1.43-1.37-2.25-.02-.05-.09-.09-.22-.2-.38.44-.72.86-1.1,1.27-.61.67-1.14,1.52-2.31,1.11-.05-.02-.31.18-.35.3-.09.26-.14.54-.16.81-.1,1.14-1.09,2.07-2.49,2.46-.82.23-1.85-.23-2.15-1.09-.24-.7-.46-1.49-.34-2.24.5-3.31,1.13-6.62,1.71-9.93.08-.45.14-.89.23-1.34.26-1.25.57-2.5.79-3.75.11-.59.08-1.17.12-1.83,1.11-.18,2.3-.37,3.5-.56.39.06.78.12,1.17.18.31.4.7.59,1.33.31.18-.08.4-.05.6-.07,1.2-.14,2.4-.24,3.6-.44.44-.07,1-.27.8-.97-1.77.07-3.59.14-5.4.21-.71,0-1.42,0-2.13,0Zm.5,10.05c-.21,1.23-.43,2.47-.64,3.7.06,0,.11,0,.17,0,1.01-1.22,1.86-2.45.65-3.67-.06,0-.12-.01-.18-.02Zm10.42-.91s-.04.04-.04.05c0,.04.02.07.03.11-.13.8-.27,1.6-.4,2.39-.02.02-.05.04-.05.05,0,.04.02.08.03.11-.06.25-.12.51-.18.78.11-.02.21-.01.26-.05,1.33-1.01,1.61-2.31.75-3.37-.05-.07-.08-.15-.12-.23-.06,0-.12,0-.18-.01-.03.05-.07.11-.1.16Zm5.95-2.24c.07-.38.11-.76.21-1.14.15-.57-.06-.91-.7-.91-1.39-.01-2.77-.02-4.17.03-.21,0-.46.36-.69.55.21.12.4.28.64.35.5.15,1.19.11,1.51.39.8.72,1.42,1.59,2.13,2.39.11.13.29.21.44.31.12-.17.32-.33.36-.5.12-.49.19-.98.27-1.48Zm-15.83-.19c.05.05.1.1.15.15.25,0,.51.05.75-.01.73-.2,1.2.05,1.51.51.55.8,1.06,1.64,1.59,2.45.08.13.23.22.35.32.1-.03.2-.06.3-.08.23-1.34.49-2.67.68-4.01.03-.17-.24-.5-.37-.49-1.5.22-3.01.49-4.51.77-.16.03-.31.25-.46.38Zm12.45,7.36c-.29.41-.47.61-.6.83-.26.42-.49.85-.73,1.28.63.04,1.26.07,1.89.11.05,0,.13,0,.15-.02.11-.13.32-.33.28-.41-.27-.56-.6-1.1-.99-1.79Z"/>
      <g>
        <path class="cls-1" d="m146.14,97.69c-.64-.04-1.31-.02-1.92-.14-1.49-.28-2.22-1.32-1.98-2.72.17-1,.35-2,.52-2.96-1.3-.54-2.69-1.12-4.1-1.7.96-.89,1.93-1.74,2.84-2.64,1.82-1.81,3.67-3.62,5.38-5.51.64-.71.94-1.64,1.46-2.59,1.17.18,2.5.31,3.76.6,1.02.23,1.48,1.13,1.35,2.1-.04.28.08.8.13.79.51-.07,1.2-.09,1.49-.38.8-.8,1.42-1.73,2.13-2.6.11-.14.32-.34.43-.33,1.02.09,2.05.16,3.02.36,1.14.24,1.88.87,1.93,2,0,.13.07.24.09.33,1.27,0,2.5-.02,3.73,0,.61.01,1.07.79,1,1.54-.09.92-.72,1.55-1.99,1.8-1.27.25-2.56.38-3.84.56-.42.06-.84.11-1.35.34.12.06.23.18.36.18,1.49-.02,2.98-.08,4.46-.1.74-.01.66.57.72.98.06.43-.2.87-.73,1.02-.83.24-1.68.39-2.52.57-.06.04-.12.07-.18.11-.05,0-.09,0-.14.02-.71.06-1.42.12-2.12.18,0,.1-.01.2-.02.3.69-.04,1.39-.08,2.08-.11.71,0,1.43-.04,2.12.02.65.06.84.55.87,1.06.03.5-.36.92-.88,1.06-1.13.29-2.27.48-3.42.68-.53.1-1.06.13-1.59.2l-.1.18c.26.06.51.19.78.18,1.56-.07,3.13-.2,4.68-.24.81-.02,1.05.57,1.13,1.16.08.57-.09,1.18-.83,1.45-.76.28-1.56.48-2.35.6-1.43.22-2.87.37-4.3.52-.46.05-.91.01-1.37.04-.34.02-.68.08-1.03.13-1.18.1-2.35.2-3.53.3-.52.04-1.03.09-1.55.13-1.07.04-2.13.05-3.2.14-.48.04-.96.26-1.44.4Zm6.6-7.71c-.91,0-1.66.02-2.41,0-.51-.02-.82.16-.97.63.98.46,2.06-.07,3.08-.14.07,0,.15-.25.29-.49Zm-3.06-2.51c1.3-.1,2.46-.19,3.62-.27-.61-.73-3.07-.54-3.62.27Zm2.78,6.22c0-.12.01-.24.02-.36-1.2.15-2.36-.26-3.58.24,0,.12-.02.23-.03.35,1.2-.08,2.39-.15,3.59-.23Z"/>
        <path class="cls-1" d="m155.96,97.1c1.86-.17,3.71-.33,5.57-.52,1.82-.18,3.38.84,3.48,2.38.06.94-.52,1.77-1.42,2.38-1.08.74-2.22,1.4-3.36,2.12.73.3,1.51.61,2.29.93.23.09.49.16.68.3.44.32,1.3.47,1.07,1.16-.29.87-.82,1.68-1.96,2.08-1.41.49-2.63.18-3.84-.1-1.71-.41-3.38-.91-5.09-1.33-.27-.07-.65-.05-.94.05-2.82.95-5.69,1.55-8.57,2.04-2.03.34-3.8.11-5-1.28-.21-.24-.34-.53-.53-.79-.32-.44-.66-.88-1.05-1.4,2.71-.38,5.45-.77,8.19-1.16.02-.08.04-.17.06-.25-.67-.22-1.35-.43-2.02-.66-.54-.19-1.09-.38-1.59-.64-.26-.13-.41-.41-.6-.62-.11-.12-.17-.29-.32-.36-.86-.4-1.03-.89-.57-1.77.15-.29.42-.58.47-.86.11-.68.62-.67,1.07-.58,1.34.29,2.73,0,4.11-.17.25,0,.49.04.74.02,1.29-.13,2.58-.28,3.88-.42.52-.05,1.04-.1,1.55-.15.15.01.29.05.44.03,1.09-.13,2.18-.28,3.27-.42Zm.21,3.76c-1.15.08-2.29.15-3.44.23,1.17.88,2.41.74,3.44-.23Z"/>
      </g>
      <g>
        <path class="cls-1" d="m104.68,101.12c2.31-.02,4.72,0,7.14-.06,2.65-.07,5.31-.21,7.96-.31,2.81-.11,5.61-.16,8.42-.35,1.68-.11,2.84,1.24,2.72,2.65-.04.49-.13.99-.29,1.47-.37,1.1-1.48,1.48-2.5,1.79-1.83.56-3.68.86-5.56.9-2.15.05-4.33.28-6.5.42-.99.06-1.98.12-2.96.15-2.25.07-4.5.1-6.75.19-1.82.07-2.84-1.26-2.99-2.66-.11-1.02.36-1.91.82-2.84.23-.46.35-.95.5-1.37Z"/>
        <path class="cls-1" d="m108.85,82.29c1.01-.07,2.12-.14,3.23-.21,2.42-.15,4.85-.3,7.27-.46,2.09-.14,4.19-.3,6.28-.44,1.06-.07,2.13-.13,3.19-.16,1.83-.05,3.23,1.38,3.11,3.14-.11,1.69-1.72,3.03-3.76,3.2-2.42.2-4.84.39-7.27.59-1.94.15-3.88.32-5.82.44-1.57.09-3.14.12-4.7.17-1.85.05-2.72-1.22-2.55-2.62.1-.8.48-1.61.72-2.42.12-.4.2-.81.3-1.22Z"/>
        <path class="cls-1" d="m109.54,91.85c.99-.07,2.07-.14,3.16-.21,2.75-.19,5.51-.41,8.26-.57,1.65-.1,3.3-.15,4.95-.17,1.98-.03,3.57,1.71,2.68,3.94-.55,1.38-2.05,2.16-3.83,2.26-2.29.13-4.59.37-6.89.56-.66.05-1.32.12-1.97.15-1.67.06-3.35.19-5,.14-1.6-.05-2.32-1.1-2.25-2.34.04-.75.44-1.53.64-2.29.12-.48.17-.97.25-1.46Z"/>
      </g>
    </g>
  </g>
  <g>
    <path class="cls-4" d="m146.96,53.58c.5.02,1.01-.02,1.49.07,1.25.23,1.88.98,1.95,2.08.06.96.11,1.92.03,2.89-.22,2.89-.47,5.78-.79,8.67-.12,1.1-.41,2.2-.74,3.28-.34,1.12-2.09,1.69-3.29,1.34-.77-.22-1.71-.13-2.58-.08-1.67.09-3.34.25-5.01.38-.68.05-1.36.1-2.04.15-1.36.1-1.97-.32-2.26-1.51-.15-.59-.11-1.24-.16-1.86-.08-.02-.15-.04-.23-.06-.38.46-.78.92-1.14,1.39-.97,1.26-2.24,2.18-3.88,2.64-.63.18-1.15.09-1.63-.3-1.21-1-2.05-2.24-2.71-3.56-.28-.57-.67-.52-1.19-.52-.52,0-1.06,0-1.55-.1-.69-.16-1.35-.41-2.13-.66,1.17-1.4,2.69-2.66,4.33-3.91-1.43-.47-2.82-.92-4.34-1.42,1.55-1.06,2.98-2.05,4.53-3.12-1.18-.41-2.24-.77-3.39-1.17.52-.36,1.06-.74,1.6-1.1.55-.36.88-.62.4-1.29-.95-1.32-1.57-2.78-1.21-4.51.23-1.11,1.16-1.61,2.14-.97,1.08.71,2.07,1.54,3.09,2.31.19.25.32.56.57.74.18.13.51.12.77.17.07-.21.23-.44.18-.61-.08-.31-.29-.59-.45-.88-.09-.58-.19-1.15-.29-1.76-1.19-.24-2.71.36-3.75-.5-.92-.77-1.69-1.68-2.61-2.61,1.37-.45,2.66-.78,3.88-1.27,1.78-.72,3.52-1.52,5.24-2.36.43-.21.7-.69,1.07-1.09,1.04.39,2.26.73,3.31,1.28,1.37.72,1.37,2.65,0,3.62-.99.7-2.16,1.2-3.49,1.93.29.19.58.4.89.59.22.13.45.24.68.36.14-.21.28-.42.47-.69.5,0,1.08.04,1.65-.02.21-.02.54-.24.59-.41.25-.75.42-1.53.64-2.37.23,0,.51,0,.79,0,1.21,0,1.18.15,1.26-1.07.04-.63.02-1.26.03-2.08,1.12-.06,2.39-.19,3.65-.18,1.04,0,1.54.83,1.42,2.07-.06.66.19.88.89.68.2-.06.49-.33.5-.5.06-.84.03-1.68.04-2.66.49-.12,1.1-.33,1.72-.4.68-.08,1.39-.11,2.05-.02,1.03.14,1.53.83,1.38,1.93-.11.79.02,1.29.87,1.68,1.6.75,1.63,2.13,1.01,3.44-.33.69-1.04,1-1.82,1.18-.36.08-.61.2-.69.63-.16.83-.83,1.33-1.71,1.63-.89.23-1.72.16-2.51-.18-.2-.36-.35-.75-.63-1.05-.17-.19-.55-.33-.83-.3-.33.03-.83.21-.94.43-.62,1.22-2.43,1.92-3.64,1.27-.59-.32-1.03-.82-1.53-1.24-.6.58-1.22,1.26-1.93,1.85-.72.6-1.53,1.1-2.25,1.62.64.96,1.28,1.92,1.93,2.89.25-1.11.36-2.2.43-3.28.03-.47.22-.73.78-.82.88-.14,1.78-.53,2.58.08.13.1.39.11.59.1.62-.03,1.25-.07,1.87-.14.95-.12,1.9-.28,2.84-.42,1.06-.1,2.13-.2,3.19-.29Zm-17.85,7.24c-.57.35-1.09.68-1.61,1-.45.27-.42.44.06.58.42.12.83.29,1.37.48.06-.69.12-1.32.18-2.06Zm16.09-.39c.11-.62.21-1.19.32-1.76h-1.15c-.42,1.64-.35,1.8.83,1.76Zm-19.9,6.92c1.58.23,2.94-.84,2.75-1.92-.87.61-1.74,1.21-2.75,1.92Zm19.52-2.17c-.06-.07-.12-.14-.17-.21-.32.15-.78.24-.92.47-.18.28-.16.69-.1,1.02.03.18.33.39.54.4.16,0,.48-.27.52-.44.11-.4.1-.83.13-1.24Zm-5.56,1.15s-.06-.02-.09-.02c.01-.12.01-.23.03-.35.06-.38-.05-.63-.55-.62-.49,0-.55.28-.56.61,0,.25-.06.51-.06.76,0,.4.51.67.84.41.22-.18.27-.52.39-.79Zm.47-6.32c.07-.32.13-.67-.48-.68-.54,0-.61.28-.61.64,0,.33-.17.73.45.76.6.03.65-.3.64-.73Zm-13.09-1.83c.78.33,1.47.62,2.3.97-.45-1.31-.99-1.53-2.3-.97Z"/>
    <path class="cls-4" d="m103.2,66.96c-.4,1.3-.65,2.57-1.17,3.76-.6,1.36-1.62,2.49-3.3,3.04-.73.24-1.29.07-1.77-.28-1.86-1.37-3.21-3.09-4.34-4.98-.29-.49-.54-.99-.79-1.5-.22-.45-.5-.43-.9-.1-.28.23-.58.46-.91.63-1.52.76-3,.3-3.36-1.15-.21-.84-.2-1.78-.04-2.65.23-1.29.67-2.57,1.06-3.84.4-1.31.86-2.61,1.25-3.93.34-1.15.67-2.31.89-3.47.17-.9.2-1.82.25-2.73.01-.25-.1-.49-.2-.9,1.35-.04,2.69-.21,3.96-.09,1.08.1,1.72,1.02,1.57,2-.38,2.49-.74,4.98-1.28,7.46-.43,1.97-1.11,3.92-1.7,5.87-.11.35-.34.69-.57,1.13,1.15.49,2.18,1.22,3.59,1.34.48.04.65-.2.71-.53.19-1.05.41-2.11.5-3.16.41-4.65.81-9.3,1.16-13.95.08-1.13,0-2.27-.93-3.22,1.33-.32,2.59-.81,3.86-.9,2.15-.16,3.69.78,3.67,2.91,0,.25.09.5.16.83.38-.13.74-.19,1.01-.36,2.62-1.59,4.87-.38,5.95,1.2,1.04,1.53,1.6,3.22,1.76,5.05.1,1.15.37,2.29.38,3.44.01,1.3-.12,2.62-.31,3.93-.16,1.12-.41,2.25-.74,3.36-.52,1.75-1.67,3.19-3.53,4.07-1.88.89-2.9,1.01-4.28-.59-.43-.5-.83-1.03-1.27-1.52-.09-.1-.27-.14-.36-.18Zm1.49-16.7c-.07.06-.14.11-.21.17.02.3.08.59.05.89-.32,3.67-.61,7.34-1,11.02-.08.77.22,1.1.92,1.34.76.26,1.31.09,1.61-.62.26-.62.53-1.27.58-1.9.11-1.49.06-2.97.13-4.46.1-2.17-.65-4.1-1.6-5.97-.09-.18-.32-.31-.48-.46Z"/>
    <g>
      <path class="cls-4" d="m75.47,85.06c-1.89-.06-2.44-2.17-1.9-3.35.2-.44.44-.87.64-1.32.1-.24.14-.49.22-.8.26,0,.57.02.89,0,2.25-.13,4.5-.26,6.75-.39,1.75-.1,3.5-.17,5.25-.28,1.37-.09,2.75-.28,4.12-.33,1.79-.07,3.57-.1,5.33-.02,1,.05,1.69,1.28,1.54,2.35-.2,1.5-.93,2.23-2.9,2.63-1.58.32-3.17.48-4.76.68-.65.08-1.3.11-1.95.14-.57.02-.8.25-.72.8.94-.07,1.9-.13,2.87-.2,1.81-.13,3.6-.14,5.23.35,1.61.49,2.1,1.72,1.92,3.16-.44,3.46-.93,6.92-1.56,10.38-.29,1.62-.66,3.29-1.69,4.82-.76,1.14-1.74,2.12-3.16,2.67-.59.23-1.07.22-1.54-.12-1.1-.79-1.68-1.9-2.3-2.99-.24-.42-.4-.87-.67-1.27-.09-.14-.38-.27-.56-.23-.5.09-1,.28-1.49.42-.25.71-.48,1.48-.79,2.24-.43,1.05-1.39,1.63-2.69,1.75-.93.08-1.38-.51-1.63-1.13-.22-.55-.2-1.19-.28-1.79-.02-.14.02-.36-.07-.41-.84-.53-1.03-1.41-1.36-2.22-.02-.05-.09-.09-.22-.2-.37.43-.72.85-1.09,1.25-.61.66-1.13,1.5-2.28,1.1-.05-.02-.31.18-.35.29-.09.26-.14.53-.16.79-.1,1.12-1.08,2.04-2.46,2.42-.81.22-1.84-.23-2.13-1.07-.24-.69-.45-1.47-.34-2.21.5-3.26,1.12-6.53,1.69-9.79.08-.44.14-.88.23-1.32.26-1.23.56-2.46.79-3.69.11-.58.08-1.16.12-1.8,1.1-.18,2.28-.37,3.47-.56.39.06.77.12,1.16.18.3.4.69.59,1.32.31.17-.08.39-.04.59-.07,1.19-.14,2.38-.24,3.57-.43.43-.07.99-.27.8-.95-1.76.07-3.55.14-5.35.21-.7,0-1.41,0-2.11,0Zm.49,9.9l-.63,3.65c.06,0,.11,0,.17,0,1-1.21,1.84-2.41.65-3.62-.06,0-.12-.01-.18-.02Zm10.32-.9s-.04.04-.04.05c0,.04.02.07.03.11-.13.79-.27,1.57-.4,2.36-.02.02-.05.04-.05.05,0,.04.02.07.03.11-.06.25-.11.5-.18.77.11-.02.21-.01.26-.05,1.31-1,1.59-2.27.74-3.33-.05-.06-.08-.15-.12-.22-.06,0-.12,0-.18-.01-.03.05-.07.1-.1.16Zm5.89-2.21c.07-.37.1-.75.2-1.12.15-.57-.05-.89-.69-.9-1.37-.01-2.75-.02-4.13.03-.21,0-.45.36-.68.55.21.12.4.27.63.34.5.14,1.18.1,1.49.39.79.71,1.41,1.57,2.11,2.36.11.13.29.21.44.31.12-.16.31-.32.36-.49.12-.48.18-.97.27-1.45Zm-15.68-.19c.05.05.1.1.15.15.25,0,.51.05.74-.01.73-.2,1.19.05,1.5.5.55.79,1.05,1.61,1.58,2.41.08.13.23.21.35.32.1-.03.2-.05.3-.08.23-1.32.48-2.63.68-3.95.03-.17-.24-.5-.36-.48-1.49.22-2.98.48-4.46.76-.16.03-.31.24-.46.37Zm12.33,7.26c-.29.4-.46.6-.59.82-.25.42-.49.84-.73,1.26.63.04,1.25.07,1.88.11.05,0,.13,0,.15-.02.11-.13.31-.33.28-.4-.27-.55-.59-1.08-.98-1.77Z"/>
      <g>
        <path class="cls-4" d="m144.72,95.83c-.64-.04-1.3-.02-1.9-.14-1.48-.28-2.2-1.3-1.97-2.68.17-.99.35-1.97.51-2.92-1.29-.53-2.66-1.1-4.06-1.68.95-.87,1.91-1.71,2.81-2.6,1.8-1.79,3.63-3.56,5.32-5.42.64-.7.93-1.62,1.45-2.55,1.16.18,2.48.31,3.72.59,1.01.23,1.46,1.11,1.33,2.07-.04.27.08.78.13.78.5-.07,1.19-.09,1.48-.37.79-.79,1.41-1.71,2.11-2.57.11-.13.32-.33.43-.32,1.01.09,2.03.16,3,.36,1.13.23,1.86.86,1.91,1.97,0,.12.07.24.09.33,1.25,0,2.48-.02,3.7,0,.6.01,1.06.78.99,1.52-.09.9-.71,1.53-1.97,1.77-1.26.24-2.53.38-3.8.56-.42.06-.84.11-1.34.33.12.06.23.18.35.17,1.47-.02,2.95-.08,4.42-.1.73-.01.65.56.71.97.06.42-.2.86-.72,1.01-.82.23-1.66.38-2.5.56-.06.03-.12.07-.18.1-.05,0-.09,0-.14.02-.7.06-1.4.12-2.1.17,0,.1-.01.2-.02.3.69-.04,1.37-.07,2.06-.11.7,0,1.42-.04,2.1.02.64.06.83.54.86,1.04.03.49-.36.91-.87,1.04-1.12.28-2.25.47-3.38.67-.52.09-1.05.13-1.57.19l-.09.17c.26.06.51.19.77.18,1.54-.07,3.1-.2,4.64-.24.8-.02,1.04.57,1.12,1.14.08.56-.09,1.16-.82,1.43-.75.27-1.55.47-2.32.59-1.42.22-2.84.36-4.26.51-.45.05-.9.01-1.35.04-.34.02-.68.08-1.02.12-1.17.1-2.33.2-3.5.3-.51.04-1.02.09-1.53.13-1.06.04-2.11.05-3.17.14-.47.04-.95.25-1.43.39Zm6.53-7.59c-.9,0-1.65.02-2.38,0-.5-.02-.81.15-.96.62.97.45,2.04-.07,3.05-.14.07,0,.15-.25.29-.48Zm-3.03-2.47c1.29-.1,2.44-.18,3.59-.27-.6-.71-3.04-.53-3.59.27Zm2.75,6.12c0-.12.01-.23.02-.35-1.19.15-2.34-.25-3.55.23,0,.11-.02.23-.03.34,1.18-.07,2.37-.15,3.55-.22Z"/>
        <path class="cls-4" d="m154.44,95.25c1.84-.17,3.68-.33,5.52-.51,1.8-.18,3.34.83,3.44,2.35.06.93-.52,1.74-1.4,2.35-1.07.73-2.2,1.38-3.33,2.09.72.29,1.5.6,2.27.91.23.09.49.16.67.29.44.32,1.29.46,1.06,1.14-.29.86-.81,1.66-1.94,2.05-1.4.48-2.6.18-3.8-.1-1.7-.4-3.35-.89-5.04-1.32-.27-.07-.64-.05-.93.05-2.79.94-5.64,1.53-8.49,2.01-2.02.34-3.77.11-4.95-1.26-.21-.24-.34-.52-.52-.78-.32-.44-.65-.87-1.04-1.38,2.68-.38,5.4-.76,8.11-1.14.02-.08.04-.16.06-.25-.67-.22-1.34-.42-2-.65-.54-.19-1.08-.37-1.57-.63-.26-.13-.41-.4-.6-.61-.11-.12-.17-.29-.32-.36-.85-.39-1.02-.88-.56-1.75.15-.29.41-.57.46-.85.11-.67.62-.66,1.06-.57,1.32.29,2.7,0,4.07-.17.25,0,.49.04.74.02,1.28-.13,2.56-.27,3.84-.41.51-.05,1.03-.1,1.54-.15.14.01.29.05.43.03,1.08-.13,2.16-.27,3.24-.41Zm.21,3.71c-1.14.08-2.27.15-3.41.23,1.16.87,2.39.73,3.41-.23Z"/>
      </g>
      <g>
        <path class="cls-4" d="m103.65,99.21c2.29-.02,4.68,0,7.08-.06,2.62-.07,5.26-.21,7.88-.31,2.78-.11,5.55-.16,8.34-.34,1.66-.11,2.81,1.22,2.69,2.61-.04.48-.13.98-.29,1.45-.37,1.08-1.47,1.46-2.48,1.77-1.82.55-3.65.85-5.51.89-2.13.05-4.29.28-6.44.42-.98.06-1.96.12-2.93.15-2.23.07-4.46.1-6.69.19-1.8.07-2.81-1.25-2.96-2.62-.11-1,.35-1.88.81-2.8.23-.45.35-.93.5-1.35Z"/>
        <path class="cls-4" d="m107.79,80.65c1-.06,2.1-.14,3.2-.21,2.4-.15,4.8-.29,7.2-.45,2.07-.14,4.15-.3,6.22-.43,1.05-.07,2.11-.13,3.15-.15,1.81-.05,3.2,1.35,3.08,3.09-.11,1.66-1.7,2.98-3.72,3.15-2.4.2-4.8.39-7.2.58-1.92.15-3.85.32-5.77.43-1.56.09-3.11.12-4.66.17-1.83.05-2.69-1.2-2.52-2.59.09-.79.47-1.59.71-2.38.12-.4.2-.8.3-1.2Z"/>
        <path class="cls-4" d="m108.47,90.08c.98-.07,2.05-.14,3.13-.21,2.73-.19,5.46-.4,8.18-.56,1.64-.1,3.27-.14,4.9-.17,1.96-.03,3.54,1.68,2.66,3.88-.55,1.36-2.03,2.13-3.79,2.22-2.27.13-4.55.37-6.83.55-.65.05-1.3.12-1.95.15-1.65.06-3.32.19-4.95.14-1.59-.05-2.3-1.08-2.23-2.31.04-.74.44-1.5.63-2.26.12-.47.17-.95.25-1.43Z"/>
      </g>
    </g>
  </g>
  <g>
    <path class="cls-3" d="m89.79,134.79c-.25-.07-.4-.26-.45-.58-.05-.27-.11-.45-.18-.52-.07-.06-.27-.14-.59-.23-.57-.16-1.31.08-2.25.7-1.28.83-2.09,1.73-2.4,2.73-.15.48-.11.95.12,1.4.23.47.6.77,1.1.92.42.13.88.15,1.36.07.27-.04.7-.16,1.28-.36.28-.09.47-.13.59-.09.18.05.31.15.39.3.09.15.11.31.07.46-.05.17-.16.3-.35.39-1.32.59-2.56.72-3.68.39-.86-.25-1.49-.78-1.89-1.55-.38-.75-.44-1.52-.19-2.3.41-1.26,1.4-2.36,2.92-3.35,1.26-.82,2.34-1.11,3.27-.85.19.05.36.11.5.17.15.06.27.12.38.19.19-.16.39-.2.61-.15.27.07.39.29.37.65-.02.32-.08.71-.2,1.15-.04.16-.12.28-.24.37-.15.12-.32.15-.51.1Z"/>
    <path class="cls-3" d="m94.61,143.09c-.08-.02-.21-.13-.38-.34-.16-.2-.27-.37-.33-.51-.44.11-.83.18-1.16.21-.33.03-.6.02-.8-.02-.98-.23-1.64-.66-1.96-1.27-.3-.58-.33-1.35-.08-2.32.24-.92.77-1.61,1.6-2.1.83-.49,1.7-.63,2.62-.42.35.08.72.25,1.11.51.5.33.72.64.66.95-.02.1-.08.19-.18.25-.07.14-.15.37-.24.7-.09.33-.2.75-.31,1.27-.1.47-.15.86-.13,1.15,0,.18.07.54.19,1.09.01.07.04.19.08.33,0,.04.01.07.02.11-.03.15-.12.27-.25.34-.14.07-.29.1-.44.06Zm-.44-4.26c.04-.16.09-.34.15-.53.07-.19.14-.39.23-.59-.13-.11-.25-.19-.35-.24-.1-.06-.18-.09-.25-.11-.62-.14-1.22-.03-1.78.35-.57.37-.94.87-1.09,1.49-.15.62-.15,1.12.02,1.49.17.37.49.61.97.72.4.09.76.1,1.06.03.16-.04.41-.14.73-.3.09-1.04.19-1.81.3-2.32Z"/>
    <path class="cls-3" d="m101.4,138.86c-.09-.01-.19-.03-.3-.06-.11-.03-.21-.05-.3-.06-.09-.02-.37-.03-.84-.05-.15,1.14-.31,2.29-.46,3.43-.01.09-.02.17-.04.26-.01.1-.03.2-.04.3-.12.85-.42,1.23-.88,1.15-.17-.03-.31-.11-.42-.23-.11-.12-.15-.26-.12-.41.02-.15.07-.36.14-.65.06-.29.11-.51.14-.65.16-1.13.32-2.26.48-3.39-.29-.07-.74-.18-1.33-.35-.35-.12-.49-.34-.43-.67.03-.17.11-.3.25-.39.13-.09.28-.12.45-.09.41.11.83.22,1.24.33.04-.2.07-.46.12-.79.04-.33.08-.57.1-.72.03-.16.11-.28.24-.37.13-.09.28-.11.45-.08.35.06.51.38.48.96-.01.14-.04.32-.07.52-.02.11-.05.22-.07.33-.02.12-.04.24-.07.36.51.02.8.04.87.05.42.07.69.13.81.19.23.12.33.32.29.6-.03.17-.1.3-.23.39-.13.09-.28.13-.46.1Z"/>
    <path class="cls-3" d="m111.2,144.75c-.98.28-2.23.35-3.72.2-.18-.02-.35-.11-.5-.29-.15-.17-.21-.34-.19-.51.06-.57.12-1.13.18-1.7.06-.56.18-1.34.36-2.37.2-1.1.33-1.9.39-2.4.03-.36.11-.89.23-1.59.05-.19.13-.31.23-.36.55-.11,1.17-.13,1.85-.07.69.06,1.34.34,1.95.85.71.59,1.05,1.27,1,2.06-.06,1-.51,1.77-1.37,2.29.6.29,1.05.6,1.34.92.29.32.43.66.41,1.02-.03.47-.32.91-.9,1.32-.4.29-.83.49-1.26.62Zm-.97-3.16c-.22-.05-.43-.1-.65-.15-.05,0-.14,0-.25-.01-.11,0-.2,0-.25-.01-.22-.02-.46-.06-.71-.12-.07.49-.13.92-.16,1.31-.04.4-.08.8-.12,1.21,1.11.07,2.03,0,2.74-.2.3-.08.6-.23.88-.43.27-.19.41-.33.41-.43.01-.18-.24-.41-.76-.67-.39-.2-.77-.36-1.14-.48Zm-.3-4.73c-.43-.04-.74-.05-.92-.04-.04.34-.07.68-.11,1.02-.11.75-.22,1.5-.33,2.25.58.1.89.15.93.15.62,0,1.15-.14,1.56-.43.45-.32.69-.75.72-1.29.02-.37-.16-.73-.56-1.07-.4-.35-.83-.54-1.29-.58Z"/>
    <path class="cls-3" d="m117.07,145.6c-.72-.01-1.33-.28-1.83-.78-.56-.56-.82-1.3-.81-2.21.01-.88.29-1.65.8-2.3.61-.77,1.41-1.14,2.42-1.12.81.01,1.42.37,1.85,1.09.34.58.5,1.27.49,2.09,0,.87-.25,1.61-.73,2.22-.55.69-1.28,1.04-2.18,1.02Zm.48-5.22c-.6-.01-1.08.25-1.43.79-.28.43-.43.93-.45,1.5-.02.57.13,1.01.46,1.34.27.27.6.41.98.42.44,0,.82-.13,1.15-.43.36-.32.56-.77.58-1.32.07-1.51-.36-2.27-1.27-2.29Z"/>
    <path class="cls-3" d="m126.61,141.66c.02.28.04.7.08,1.26.04.56.06.98.08,1.26,0,.09.02.22.05.39.03.17.04.3.05.39,0,.17-.05.31-.16.42-.12.11-.27.18-.45.19-.33.02-.55-.16-.66-.52-.52.28-1.13.43-1.83.46-.56.02-1.03-.08-1.4-.3-.41-.24-.66-.6-.74-1.08-.18-1.03-.27-1.95-.29-2.76,0-.53.04-1.15.16-1.83.05-.34.24-.51.57-.52.18,0,.32.05.44.15.12.1.18.24.19.41,0,.18-.02.47-.07.86-.05.4-.07.7-.07.9.02.65.05,1.21.11,1.67.06.46.14.83.24,1.11.14.07.28.12.42.15.14.03.27.05.4.04.57-.02,1.17-.13,1.79-.33-.02-.4-.04-.79-.06-1.19-.02-.38-.04-.76-.07-1.13-.04-.84-.04-1.58.01-2.2.03-.36.22-.55.56-.57.17,0,.33.04.45.14.13.1.19.24.19.4,0,.74.01,1.48.02,2.22Z"/>
    <path class="cls-3" d="m132.15,139.62c-.09,0-.19.02-.3.02-.12,0-.22.01-.3.02-.1,0-.37.07-.83.17.15,1.15.3,2.29.45,3.44.01.09.02.17.03.26.01.1.02.2.03.3.1.85-.08,1.3-.55,1.34-.17.02-.32-.02-.46-.11-.14-.09-.21-.21-.22-.36-.01-.15-.03-.37-.04-.67-.01-.3-.02-.52-.04-.67-.14-1.13-.28-2.27-.41-3.4-.3.01-.76.02-1.37,0-.37-.02-.56-.2-.59-.54-.01-.17.03-.32.14-.44.1-.12.24-.19.41-.2.43,0,.86,0,1.28,0-.02-.2-.05-.46-.09-.79-.05-.33-.07-.57-.09-.72-.01-.16.03-.3.14-.42.11-.12.24-.18.41-.2.36-.03.59.23.71.8.03.14.05.32.07.52,0,.11.01.23.02.34,0,.12.02.24.03.36.5-.11.78-.17.85-.18.42-.04.7-.05.83-.03.26.05.4.22.43.51.02.17-.02.32-.12.44-.1.12-.24.19-.41.21Z"/>
    <path class="cls-3" d="m135.72,141.54c.03.23.09.58.16,1.04.08.46.13.81.16,1.04.02.17-.01.32-.12.44-.1.12-.24.2-.43.22-.18.02-.34-.01-.47-.1-.13-.09-.2-.23-.23-.4-.03-.23-.08-.58-.15-1.04-.07-.46-.12-.81-.15-1.04-.05-.36-.08-.82-.11-1.37-.03-.55-.06-1.01-.11-1.37-.02-.17.02-.32.11-.45.1-.12.23-.19.41-.22.17-.02.32.01.45.11.13.09.2.23.22.4.05.36.09.82.12,1.37.03.55.07,1.01.12,1.37Zm-.91-4.68c-.19.03-.37-.02-.52-.13-.16-.11-.25-.26-.27-.45-.02-.19.02-.35.15-.5.12-.15.28-.24.47-.26.19-.03.36.02.51.13.15.11.24.26.27.45.03.19-.02.35-.14.5-.12.15-.28.24-.47.26Z"/>
    <path class="cls-3" d="m142.76,141.2c.05.75.09,1.51.14,2.27.05.84.14,1.59.27,2.26.03.17,0,.32-.1.45-.1.13-.24.21-.43.25-.4.07-.65-.08-.74-.47-.04-.17-.07-.38-.08-.65-.01-.22-.02-.44-.03-.66-.04-.43-.07-.86-.11-1.3-.35.16-.6.24-.74.27-.92.16-1.71.07-2.35-.28-.69-.37-1.09-.97-1.21-1.8-.17-1.13.04-2.09.6-2.88.57-.81,1.44-1.31,2.61-1.51.22-.04.4.01.55.16.14-.18.28-.28.42-.31.16-.03.31,0,.45.1.14.1.23.23.26.38.22,1.13.39,2.37.51,3.71Zm-2.43-2.97c-.72.26-1.22.71-1.51,1.37-.23.53-.3,1.12-.19,1.78.07.46.28.8.63,1.04.38.26.87.34,1.45.22.4-.08.65-.33.77-.75.12-.47.09-1.22-.09-2.25-.07-.52-.13-1.04-.2-1.55-.08.04-.22.07-.42.1-.23.02-.37.04-.43.06Z"/>
    <path class="cls-3" d="m149.26,138.12c.07.27.18.68.32,1.22.15.54.25.95.32,1.22.02.08.06.21.12.37.06.17.1.29.12.37.04.16.01.31-.08.45-.09.14-.23.22-.41.27-.32.08-.57-.05-.75-.39-.46.38-1.04.64-1.72.8-.55.13-1.03.12-1.44-.03-.45-.16-.77-.47-.94-.92-.38-.98-.64-1.86-.81-2.66-.11-.52-.17-1.13-.19-1.83-.02-.34.14-.55.46-.62.17-.04.33-.02.47.06.14.08.23.2.26.36.04.18.07.46.1.86.03.4.06.7.11.9.14.64.28,1.18.43,1.62.15.44.3.79.45,1.05.15.04.3.06.44.07.14,0,.28,0,.41-.04.56-.13,1.13-.35,1.7-.66-.1-.38-.19-.77-.29-1.15-.09-.37-.19-.73-.28-1.1-.2-.82-.34-1.54-.41-2.16-.04-.36.11-.58.45-.67.17-.04.33-.03.47.05.14.08.23.19.26.36.15.72.3,1.45.44,2.17Z"/>
    <path class="cls-3" d="m154.65,140.46c-.94.28-1.76.28-2.46.02-.77-.3-1.25-.87-1.48-1.72-.26-.98-.23-1.87.09-2.67.35-.87.97-1.44,1.87-1.7.65-.19,1.22-.25,1.69-.17.59.1.97.41,1.14.94.12.37,0,.78-.36,1.23-.16.2-.52.54-1.09,1.02-.67.57-1.35,1.13-2.04,1.69.32.25.67.4,1.06.46.39.06.82.02,1.27-.11.28-.08.6-.23.95-.45.45-.27.71-.53.78-.77.08-.24.19-.39.35-.44.14-.05.28-.04.43.03.14.06.24.16.28.29.13.41-.12.89-.76,1.42-.55.45-1.13.77-1.73.95Zm-1.68-5.07c-.49.14-.84.44-1.06.88-.22.45-.32,1.05-.28,1.81.55-.45,1.09-.9,1.63-1.35.63-.54,1.06-.99,1.29-1.33-.43-.19-.96-.2-1.57-.01Z"/>
  </g>
</svg>