<svg width="40" height="30" viewBox="0 0 40 30" fill="none" xmlns="http://www.w3.org/2000/svg">
<path d="M36.6667 0H3.33333C1.49306 0 0 1.43973 0 3.21429V26.7857C0 28.5603 1.49306 30 3.33333 30H36.6667C38.5069 30 40 28.5603 40 26.7857V3.21429C40 1.43973 38.5069 0 36.6667 0ZM12.2222 6.42857C14.6736 6.42857 16.6667 8.35045 16.6667 10.7143C16.6667 13.0781 14.6736 15 12.2222 15C9.77083 15 7.77778 13.0781 7.77778 10.7143C7.77778 8.35045 9.77083 6.42857 12.2222 6.42857ZM20 22.2857C20 22.9955 19.3056 23.5714 18.4444 23.5714H6C5.13889 23.5714 4.44444 22.9955 4.44444 22.2857V21C4.44444 18.8705 6.53472 17.1429 9.11111 17.1429H9.45833C10.3125 17.4844 11.2431 17.6786 12.2222 17.6786C13.2014 17.6786 14.1389 17.4844 14.9861 17.1429H15.3333C17.9097 17.1429 20 18.8705 20 21V22.2857ZM35.5556 18.75C35.5556 19.0446 35.3056 19.2857 35 19.2857H25C24.6944 19.2857 24.4444 19.0446 24.4444 18.75V17.6786C24.4444 17.3839 24.6944 17.1429 25 17.1429H35C35.3056 17.1429 35.5556 17.3839 35.5556 17.6786V18.75ZM35.5556 14.4643C35.5556 14.7589 35.3056 15 35 15H25C24.6944 15 24.4444 14.7589 24.4444 14.4643V13.3929C24.4444 13.0982 24.6944 12.8571 25 12.8571H35C35.3056 12.8571 35.5556 13.0982 35.5556 13.3929V14.4643ZM35.5556 10.1786C35.5556 10.4732 35.3056 10.7143 35 10.7143H25C24.6944 10.7143 24.4444 10.4732 24.4444 10.1786V9.10714C24.4444 8.8125 24.6944 8.57143 25 8.57143H35C35.3056 8.57143 35.5556 8.8125 35.5556 9.10714V10.1786Z" fill="#512F10"/>
</svg>
