<svg width="37" height="37" viewBox="0 0 40 40" fill="none" xmlns="http://www.w3.org/2000/svg">
<ellipse cx="19.58" cy="19.4848" rx="19.58" ry="19.4848" transform="matrix(0.999647 0.0265507 -0.0219076 0.99976 0.85376 0)" fill="#512F10"/>
<path d="M8.22602 12.0066C7.8447 12.0773 7.50323 12.3207 7.27674 12.6831C7.05025 13.0456 6.95728 13.4974 7.01829 13.9393C7.0793 14.3812 7.28929 14.7769 7.60207 15.0394C7.91484 15.3018 8.30478 15.4095 8.6861 15.3388L12.9994 15.3388L13.2582 16.1719L14.4372 20.3372L15.6161 24.5024C15.7311 24.9356 16.22 25.3355 16.5938 25.3355L26.6582 25.3355C27.0607 25.3355 27.5208 24.9356 27.6358 24.5024L29.965 16.1719C30.08 15.7387 29.9075 15.3388 29.5049 15.3388L16.7376 15.3388L15.6449 12.9397C15.5285 12.6643 15.3488 12.4315 15.1256 12.2668C14.9023 12.1022 14.6442 12.0122 14.3796 12.0066L8.62859 12.0066C8.5425 11.9976 8.45588 11.9976 8.36979 12.0066C8.31233 12.0026 8.25472 12.0026 8.19726 12.0066L8.22602 12.0066ZM17.3127 28.6677C16.5075 28.6677 15.8749 29.4008 15.8749 30.3338C15.8749 31.2668 16.5075 31.9999 17.3127 31.9999C18.1178 31.9999 18.7505 31.2668 18.7505 30.3338C18.7505 29.4008 18.1178 28.6677 17.3127 28.6677ZM25.9393 28.6677C25.1341 28.6677 24.5015 29.4008 24.5015 30.3338C24.5015 31.2668 25.1341 31.9999 25.9393 31.9999C26.7444 31.9999 27.377 31.2668 27.377 30.3338C27.377 29.4008 26.7444 28.6677 25.9393 28.6677Z" fill="#F8CB9F"/>
</svg>
