<svg width="37" height="37" viewBox="0 0 41 40" fill="none" xmlns="http://www.w3.org/2000/svg">
<ellipse cx="19.58" cy="19.4848" rx="19.58" ry="19.4848" transform="matrix(0.999647 0.0265507 -0.0219076 0.99976 1.78656 0)" fill="#512F10"/>
<path d="M21.3066 8.92494C18.3586 8.95929 15.972 11.6006 16.0033 14.8205C16.0347 18.0403 18.4721 20.6254 21.4201 20.591C24.3681 20.5567 26.7547 17.9154 26.7234 14.6955C26.6921 11.4757 24.2546 8.89058 21.3066 8.92494ZM15.8189 20.6563C12.9792 20.8061 10.7209 22.8625 10.7454 25.3824L10.7681 27.7156L32.2083 27.4658L32.1856 25.1326C32.1611 22.6127 29.8901 20.609 27.0214 20.5258C25.588 21.9659 23.6136 22.899 21.4428 22.9243C19.272 22.9496 17.2799 22.0627 15.8189 20.6563Z" fill="#FBF5EF"/>
</svg>
