<svg width="20" height="20" viewBox="0 0 20 20" fill="none" xmlns="http://www.w3.org/2000/svg">
<path d="M11.3512 6.66667C10.5629 6.66667 7.17852 6.74917 5 10.2479V6.66667C5 4.46083 3.31797 2.66667 1.25 2.66667C0.559766 2.66667 0 3.26375 0 4C0 4.73625 0.559766 5.33333 1.25 5.33333C1.93906 5.33333 2.5 5.93167 2.5 6.66667V17.3333C2.5 18.8042 3.62109 20 5 20H11.875C12.2203 20 12.5 19.7017 12.5 19.3333V18.6667C12.5 17.9304 11.9402 17.3333 11.25 17.3333H10L15 13.3333V19.3333C15 19.7017 15.2797 20 15.625 20H16.875C17.2203 20 17.5 19.7017 17.5 19.3333V10.7442C17.098 10.8554 16.684 10.9333 16.25 10.9333C13.8355 10.9333 11.8156 9.09792 11.3512 6.66667ZM17.5 2.66667H15L12.5 0V5.6C12.5 7.80917 14.1789 9.6 16.25 9.6C18.3211 9.6 20 7.80917 20 5.6V0L17.5 2.66667ZM14.6875 6C14.3422 6 14.0625 5.70167 14.0625 5.33333C14.0625 4.965 14.3422 4.66667 14.6875 4.66667C15.0328 4.66667 15.3125 4.965 15.3125 5.33333C15.3125 5.70167 15.0328 6 14.6875 6ZM17.8125 6C17.4672 6 17.1875 5.70167 17.1875 5.33333C17.1875 4.965 17.4672 4.66667 17.8125 4.66667C18.1578 4.66667 18.4375 4.965 18.4375 5.33333C18.4375 5.70167 18.1578 6 17.8125 6Z" fill="#D7965B"/>
</svg>
