<svg width="241" height="49" viewBox="0 0 241 49" fill="none" xmlns="http://www.w3.org/2000/svg">
<path d="M240.291 0.580002C240.151 -0.249998 239.281 0.19 238.561 0C237.741 0.16 236.721 0.240001 235.781 0.540001C224.671 4.16 213.621 7.94 203.111 13.11C201.811 13.75 199.321 14.27 200.311 16.28C201.191 18.07 203.271 16.8 204.651 16.19C212.461 12.73 220.471 9.82 228.431 6.76C232.081 5.36 235.561 3.52 239.111 1.85C239.651 1.6 240.391 1.22 240.281 0.57L240.291 0.580002Z" fill="#D1935B"/>
<path d="M33.8106 13.4101C31.8906 12.6201 29.9706 11.8501 28.0406 11.1201C19.5006 7.88011 10.7506 5.21011 2.39064 1.49011C1.73063 1.20011 0.940635 0.43011 0.340635 1.12011C-0.339365 1.89011 0.120635 2.88011 0.660635 3.67011C1.19063 4.45011 1.95063 4.97012 2.77063 5.43012C11.2406 10.1501 20.4306 12.8901 29.7706 15.1801C31.7306 15.6601 33.8006 15.7001 35.8906 15.1601C35.4406 13.9601 34.5806 13.7401 33.8306 13.4201L33.8106 13.4101Z" fill="#D1935B"/>
<path d="M31.4607 34.98C22.0807 37.1 12.7207 39.31 3.46069 41.9C3.06069 42.01 2.53069 42.09 2.46069 42.74C2.95069 43.41 3.70069 43.17 4.34069 43.19C8.21069 43.32 11.9807 42.9 15.7607 41.92C20.4507 40.71 25.2507 39.96 30.0007 38.99C30.8307 38.82 31.6407 38.58 32.4407 38.31C33.6107 37.92 34.3007 37.12 33.9507 35.86C33.5707 34.5 32.3707 34.79 31.4607 34.99V34.98Z" fill="#D1935B"/>
<path d="M200.541 40.59C203.011 41.87 205.611 42.72 208.371 43.23C215.771 44.58 223.241 45.61 230.331 48.32C231.141 48.63 231.921 49.26 233.581 48.69C222.711 41.41 210.311 41.77 198.831 38.76C199.081 39.84 199.821 40.22 200.541 40.6V40.59Z" fill="#D1935B"/>
<path d="M10.9707 22.42C15.5207 26.62 30.1307 27.31 34.2007 23.26C26.2007 23.83 18.8007 22 10.9707 22.42Z" fill="#D1935B"/>
<path d="M202.901 29.16C203.281 29.13 203.661 29.02 204.041 28.97C207.091 28.59 210.101 27.89 213.201 27.85C214.061 27.85 215.591 28.55 215.711 27.15C215.841 25.64 214.301 25.36 213.061 25.17C212.611 25.1 212.141 25.16 211.681 25.16C211.681 25.11 211.681 25.07 211.671 25.02C208.551 25.46 205.431 25.88 202.311 26.35C201.191 26.52 199.531 26.63 199.771 28.05C200.011 29.49 201.681 29.26 202.911 29.16H202.901Z" fill="#D1935B"/>
</svg>
