<svg width="146" height="132" viewBox="0 0 146 132" fill="none" xmlns="http://www.w3.org/2000/svg">
<path d="M145.241 31.8771C145.061 20.8471 144.951 11.7671 141.601 3.08707C140.221 -0.482934 139.831 -0.792933 136.581 1.31707C124.851 8.90707 113.661 17.2171 103.411 26.7371C100.901 29.0671 98.7308 30.1471 95.0908 28.7671C84.4808 24.7571 73.4008 25.7071 62.4008 26.5971C56.8008 27.0471 51.3008 28.5171 45.6308 28.2171C44.5308 28.1571 43.4908 28.1471 42.6908 27.2171C38.0208 21.7971 32.1808 17.7271 26.6008 13.3571C20.7108 8.74707 14.6308 4.39707 7.88079 1.08707C4.53079 -0.552934 3.3908 0.00706625 2.7808 3.58707C1.6608 10.1871 0.0507952 16.7071 0.0107952 23.4671C-0.0392048 31.8071 -0.0392063 40.0971 2.95079 48.0871C5.64079 55.2671 6.14079 62.3771 3.40079 69.8971C1.11079 76.1971 0.530793 82.9371 1.66079 89.7271C3.79079 102.497 9.33079 112.837 21.3808 118.927C35.7508 126.187 50.9108 130.327 67.0108 130.947C76.7708 131.327 86.4008 130.447 95.9008 128.167C105.071 125.967 114.021 123.217 122.011 117.997C128.661 113.647 134.641 108.567 138.521 101.487C144.091 91.3071 144.591 80.3971 142.141 69.3671C140.871 63.6371 140.711 58.1771 142.181 52.5071C144.081 45.1271 145.961 37.6971 145.231 31.8571L145.241 31.8771Z" fill="#D1935B"/>
</svg>
