<svg width="22" height="21" viewBox="0 0 22 21" fill="none" xmlns="http://www.w3.org/2000/svg">
<path fill-rule="evenodd" clip-rule="evenodd" d="M11 0.5C16.5139 0.5 21 4.98605 21 10.5C21 16.0139 16.5139 20.5 11 20.5C5.48605 20.5 1 16.0139 1 10.5C1 4.98605 5.48605 0.5 11 0.5ZM11 1.94774C6.28424 1.94774 2.44774 5.7852 2.44774 10.5C2.44774 15.2158 6.28424 19.0523 11 19.0523C15.7158 19.0523 19.5523 15.2158 19.5523 10.5C19.5523 5.7852 15.7158 1.94774 11 1.94774ZM14.7367 6.76378C14.9268 6.95488 14.9963 7.23574 14.9153 7.49151L13.3787 12.4032C13.3083 12.63 13.1297 12.8076 12.9039 12.8781L7.99218 14.4155C7.92076 14.4377 7.84741 14.4484 7.77599 14.4484C7.58682 14.4484 7.40151 14.374 7.26349 14.237C7.07335 14.0459 7.00386 13.765 7.08493 13.5093L8.62243 8.59758C8.69289 8.3698 8.87048 8.19318 9.09632 8.12272L14.008 6.58522C14.2657 6.50319 14.5456 6.57364 14.7367 6.76378ZM13.121 8.37945L9.89065 9.39094L8.88013 12.6213L12.1095 11.6098L13.121 8.37945Z" fill="#D7965B" stroke="#D7965B" stroke-width="0.5"/>
</svg>
