<svg width="22" height="21" viewBox="0 0 22 21" fill="none" xmlns="http://www.w3.org/2000/svg">
<path fill-rule="evenodd" clip-rule="evenodd" d="M10.9986 1.5657C12.5871 0.511403 14.6972 0.220137 16.5201 0.833435C20.4853 2.17592 21.7163 6.71412 20.6153 10.3252C18.9164 15.9967 11.6609 20.2272 11.3532 20.4046C11.2438 20.4682 11.1227 20.5 11.0015 20.5C10.8804 20.5 10.7602 20.4692 10.6508 20.4067C10.3451 20.2313 3.14232 16.0633 1.38681 10.3262L1.38584 10.3252C0.283885 6.7131 1.51088 2.17387 5.47224 0.833435C7.33227 0.201677 9.35935 0.47961 10.9986 1.5657ZM5.92162 2.29797C2.71638 3.38303 1.91141 7.00231 2.78184 9.85651C4.15146 14.3301 9.56255 17.9473 11.0006 18.8427C12.4434 17.9381 17.8936 14.2809 19.2193 9.86061C20.0897 7.00334 19.2818 3.38406 16.0717 2.29797C14.5164 1.77389 12.7023 2.09285 11.4499 3.11023C11.1881 3.3215 10.8247 3.3256 10.5609 3.11638C9.23431 2.06926 7.50128 1.76261 5.92162 2.29797ZM15.1339 4.33467C16.4654 4.78695 17.3983 6.02483 17.5126 7.48834C17.5449 7.9119 17.2449 8.28316 16.8415 8.31701C16.821 8.31906 16.8014 8.32008 16.7809 8.32008C16.4029 8.32008 16.0824 8.01549 16.0512 7.61346C15.9867 6.77043 15.4494 6.05867 14.6845 5.7992C14.2986 5.66793 14.0876 5.23411 14.2117 4.83105C14.3377 4.42697 14.747 4.2075 15.1339 4.33467Z" fill="#D7965B" stroke="#D7965B" stroke-width="0.5"/>
</svg>
