<svg width="22" height="21" viewBox="0 0 22 21" fill="none" xmlns="http://www.w3.org/2000/svg">
<path fill-rule="evenodd" clip-rule="evenodd" d="M15.3591 0.5C18.733 0.5 21 2.86837 21 6.39302V14.607C21 18.1316 18.733 20.5 15.3591 20.5H6.64093C3.26698 20.5 1 18.1316 1 14.607V6.39302C1 2.86837 3.26698 0.5 6.64093 0.5H15.3591ZM15.3591 1.89535H6.64093C4.06233 1.89535 2.39535 3.66 2.39535 6.39302V14.607C2.39535 17.34 4.06233 19.1047 6.64093 19.1047H15.3591C17.9386 19.1047 19.6047 17.34 19.6047 14.607V6.39302C19.6047 3.66 17.9386 1.89535 15.3591 1.89535ZM11 6.38586C11.3851 6.38586 11.6977 6.69842 11.6977 7.08354V9.79302L14.4107 9.79321C14.7958 9.79321 15.1084 10.1058 15.1084 10.4909C15.1084 10.876 14.7958 11.1886 14.4107 11.1886L11.6977 11.1884V13.8993C11.6977 14.2845 11.3851 14.597 11 14.597C10.6149 14.597 10.3023 14.2845 10.3023 13.8993V11.1884L7.5893 11.1886C7.20326 11.1886 6.89163 10.876 6.89163 10.4909C6.89163 10.1058 7.20326 9.79321 7.5893 9.79321L10.3023 9.79302V7.08354C10.3023 6.69842 10.6149 6.38586 11 6.38586Z" fill="#D7965B" stroke="#D7965B" stroke-width="0.5"/>
</svg>
