<svg width="31" height="30" viewBox="0 0 31 30" fill="none" xmlns="http://www.w3.org/2000/svg">
<path d="M7.08002 8.23797C5.17002 8.17797 4.62002 6.03797 5.16002 4.83797C5.36002 4.38797 5.61001 3.94797 5.80001 3.49797C5.90001 3.25797 5.94002 3.00797 6.03002 2.67797C6.29002 2.67797 6.61002 2.69797 6.93002 2.67797C9.20002 2.54797 11.47 2.40797 13.74 2.28797C15.51 2.18797 17.27 2.11797 19.04 1.99797C20.42 1.90797 21.82 1.70797 23.2 1.65797C25 1.58797 26.81 1.54797 28.58 1.63797C29.59 1.68797 30.29 2.93797 30.14 4.02797C29.93 5.54797 29.2 6.28797 27.21 6.68797C25.62 7.00797 24.01 7.17797 22.4 7.37797C21.74 7.46797 21.08 7.49797 20.43 7.51797C19.86 7.53797 19.62 7.77797 19.71 8.32797C20.66 8.25797 21.63 8.19797 22.61 8.12797C24.44 7.98797 26.24 7.97797 27.89 8.48797C29.51 8.98797 30.01 10.238 29.83 11.698C29.39 15.208 28.89 18.718 28.26 22.228C27.97 23.868 27.59 25.558 26.55 27.118C25.78 28.268 24.8 29.268 23.36 29.828C22.76 30.068 22.28 30.048 21.81 29.708C20.7 28.908 20.12 27.778 19.48 26.668C19.24 26.248 19.07 25.788 18.81 25.378C18.72 25.238 18.43 25.108 18.24 25.138C17.73 25.238 17.23 25.418 16.74 25.568C16.49 26.288 16.25 27.068 15.94 27.848C15.51 28.908 14.54 29.498 13.22 29.618C12.28 29.708 11.83 29.098 11.58 28.468C11.36 27.918 11.38 27.258 11.29 26.648C11.27 26.508 11.31 26.288 11.22 26.228C10.37 25.688 10.18 24.798 9.85002 23.978C9.83002 23.928 9.76002 23.888 9.63002 23.778C9.25002 24.218 8.91002 24.638 8.53002 25.048C7.92002 25.718 7.39002 26.568 6.22002 26.158C6.17002 26.138 5.91001 26.338 5.87001 26.458C5.78001 26.718 5.73002 26.998 5.71002 27.268C5.61002 28.408 4.62002 29.338 3.22002 29.728C2.40002 29.958 1.37002 29.498 1.07002 28.638C0.830019 27.938 0.610015 27.148 0.730015 26.398C1.23002 23.088 1.86001 19.778 2.44001 16.468C2.52001 16.018 2.58002 15.578 2.67002 15.128C2.93002 13.878 3.24002 12.628 3.46002 11.378C3.57002 10.788 3.54002 10.208 3.58002 9.54797C4.69002 9.36797 5.88002 9.17797 7.08002 8.98797C7.47002 9.04797 7.86002 9.10797 8.25002 9.16797C8.56002 9.56797 8.95002 9.75797 9.58002 9.47797C9.76002 9.39797 9.98002 9.42797 10.18 9.40797C11.38 9.26797 12.58 9.16797 13.78 8.96797C14.22 8.89797 14.78 8.69797 14.58 7.99797C12.81 8.06797 10.99 8.13797 9.18002 8.20797C8.47002 8.20797 7.76001 8.20797 7.05001 8.20797L7.08002 8.23797ZM7.58002 18.288C7.37002 19.518 7.15001 20.758 6.94001 21.988C7.00001 21.988 7.05002 21.988 7.11002 21.988C8.12002 20.768 8.97002 19.538 7.76002 18.318C7.70002 18.318 7.64002 18.308 7.58002 18.298V18.288ZM18 17.378C18 17.378 17.96 17.418 17.96 17.428C17.96 17.468 17.98 17.498 17.99 17.538C17.86 18.338 17.72 19.138 17.59 19.928C17.57 19.948 17.54 19.968 17.54 19.978C17.54 20.018 17.56 20.058 17.57 20.088C17.51 20.338 17.45 20.598 17.39 20.868C17.5 20.848 17.6 20.858 17.65 20.818C18.98 19.808 19.26 18.508 18.4 17.448C18.35 17.378 18.32 17.298 18.28 17.218C18.22 17.218 18.16 17.218 18.1 17.208C18.07 17.258 18.03 17.318 18 17.368V17.378ZM23.95 15.138C24.02 14.758 24.06 14.378 24.16 13.998C24.31 13.428 24.1 13.088 23.46 13.088C22.07 13.078 20.69 13.068 19.29 13.118C19.08 13.118 18.83 13.478 18.6 13.668C18.81 13.788 19 13.948 19.24 14.018C19.74 14.168 20.43 14.128 20.75 14.408C21.55 15.128 22.17 15.998 22.88 16.798C22.99 16.928 23.17 17.008 23.32 17.108C23.44 16.938 23.64 16.778 23.68 16.608C23.8 16.118 23.87 15.628 23.95 15.128V15.138ZM8.12001 14.948C8.17001 14.998 8.22002 15.048 8.27002 15.098C8.52002 15.098 8.78002 15.148 9.02002 15.088C9.75002 14.888 10.22 15.138 10.53 15.598C11.08 16.398 11.59 17.238 12.12 18.048C12.2 18.178 12.35 18.268 12.47 18.368C12.57 18.338 12.67 18.308 12.77 18.288C13 16.948 13.26 15.618 13.45 14.278C13.48 14.108 13.21 13.778 13.08 13.788C11.58 14.008 10.07 14.278 8.57002 14.558C8.41002 14.588 8.26002 14.808 8.11002 14.938L8.12001 14.948ZM20.57 22.308C20.28 22.718 20.1 22.918 19.97 23.138C19.71 23.558 19.48 23.988 19.24 24.418C19.87 24.458 20.5 24.488 21.13 24.528C21.18 24.528 21.26 24.528 21.28 24.508C21.39 24.378 21.6 24.178 21.56 24.098C21.29 23.538 20.96 22.998 20.57 22.308Z" fill="white"/>
<path d="M6.32004 6.53777C4.43004 6.47777 3.88004 4.36777 4.42004 3.18777C4.62004 2.74777 4.86004 2.31778 5.06004 1.86778C5.16004 1.62778 5.20004 1.37777 5.28004 1.06777C5.54004 1.06777 5.85004 1.08777 6.17004 1.06777C8.42004 0.937772 10.67 0.807773 12.92 0.677773C14.67 0.577773 16.42 0.507774 18.17 0.397774C19.54 0.307774 20.92 0.117772 22.29 0.0677721C24.08 -0.00222789 25.86 -0.0322245 27.62 0.0477755C28.62 0.0977755 29.31 1.32777 29.16 2.39777C28.96 3.89777 28.23 4.62778 26.26 5.02778C24.68 5.34778 23.09 5.50778 21.5 5.70778C20.85 5.78778 20.2 5.81778 19.55 5.84778C18.98 5.86778 18.75 6.09777 18.83 6.64777C19.77 6.57777 20.73 6.51778 21.7 6.44778C23.51 6.31778 25.3 6.30778 26.93 6.79778C28.54 7.28778 29.03 8.51778 28.85 9.95778C28.41 13.4178 27.92 16.8778 27.29 20.3378C27 21.9578 26.63 23.6278 25.6 25.1578C24.84 26.2978 23.86 27.2778 22.44 27.8278C21.85 28.0578 21.37 28.0478 20.9 27.7078C19.8 26.9178 19.22 25.8078 18.6 24.7178C18.36 24.2978 18.2 23.8478 17.93 23.4478C17.84 23.3078 17.55 23.1778 17.37 23.2178C16.87 23.3078 16.37 23.4978 15.88 23.6378C15.63 24.3478 15.4 25.1178 15.09 25.8778C14.66 26.9278 13.7 27.5078 12.4 27.6278C11.47 27.7078 11.02 27.1178 10.77 26.4978C10.55 25.9478 10.57 25.3078 10.49 24.7078C10.47 24.5678 10.51 24.3478 10.42 24.2978C9.58004 23.7678 9.39004 22.8878 9.06004 22.0778C9.04004 22.0278 8.97003 21.9878 8.84003 21.8778C8.47003 22.3078 8.12004 22.7278 7.75004 23.1278C7.14004 23.7878 6.62004 24.6278 5.47004 24.2278C5.42004 24.2078 5.16003 24.4078 5.12003 24.5178C5.03003 24.7778 4.98004 25.0478 4.96004 25.3078C4.86004 26.4278 3.88004 27.3478 2.50004 27.7278C1.69004 27.9478 0.660033 27.4978 0.370033 26.6578C0.130033 25.9678 -0.0799629 25.1878 0.0300371 24.4478C0.530037 21.1878 1.15004 17.9178 1.72004 14.6578C1.80004 14.2178 1.86004 13.7778 1.95004 13.3378C2.21004 12.1078 2.51004 10.8778 2.74004 9.64777C2.85004 9.06777 2.82004 8.48778 2.86004 7.84778C3.96004 7.66778 5.14004 7.47777 6.33004 7.28777C6.72004 7.34777 7.10004 7.40777 7.49004 7.46777C7.79004 7.86777 8.18004 8.05778 8.81004 7.77778C8.98004 7.69778 9.20004 7.73778 9.40004 7.70778C10.59 7.56778 11.78 7.46778 12.97 7.27778C13.4 7.20778 13.96 7.00777 13.77 6.32777C12.01 6.39777 10.22 6.46777 8.42004 6.53777C7.72004 6.53777 7.01004 6.53777 6.31004 6.53777H6.32004ZM6.81004 16.4378L6.18004 20.0878C6.24004 20.0878 6.29004 20.0878 6.35004 20.0878C7.35004 18.8778 8.19004 17.6778 7.00004 16.4678C6.94004 16.4678 6.88004 16.4578 6.82004 16.4478L6.81004 16.4378ZM17.13 15.5378C17.13 15.5378 17.09 15.5778 17.09 15.5878C17.09 15.6278 17.11 15.6578 17.12 15.6978C16.99 16.4878 16.85 17.2678 16.72 18.0578C16.7 18.0778 16.67 18.0978 16.67 18.1078C16.67 18.1478 16.69 18.1778 16.7 18.2178C16.64 18.4678 16.59 18.7178 16.52 18.9878C16.63 18.9678 16.73 18.9778 16.78 18.9378C18.09 17.9378 18.37 16.6678 17.52 15.6078C17.47 15.5478 17.44 15.4578 17.4 15.3878C17.34 15.3878 17.28 15.3878 17.22 15.3778C17.19 15.4278 17.15 15.4778 17.12 15.5378H17.13ZM23.02 13.3278C23.09 12.9578 23.12 12.5778 23.22 12.2078C23.37 11.6378 23.17 11.3178 22.53 11.3078C21.16 11.2978 19.78 11.2878 18.4 11.3378C18.19 11.3378 17.95 11.6978 17.72 11.8878C17.93 12.0078 18.12 12.1578 18.35 12.2278C18.85 12.3678 19.53 12.3278 19.84 12.6178C20.63 13.3278 21.25 14.1878 21.95 14.9778C22.06 15.1078 22.24 15.1878 22.39 15.2878C22.51 15.1278 22.7 14.9678 22.75 14.7978C22.87 14.3178 22.93 13.8278 23.02 13.3478V13.3278ZM7.34003 13.1378C7.39003 13.1878 7.44004 13.2378 7.49004 13.2878C7.74004 13.2878 8.00003 13.3378 8.23003 13.2778C8.96003 13.0778 9.42003 13.3278 9.73003 13.7778C10.28 14.5678 10.78 15.3878 11.31 16.1878C11.39 16.3178 11.54 16.3978 11.66 16.5078C11.76 16.4778 11.86 16.4578 11.96 16.4278C12.19 15.1078 12.44 13.7978 12.64 12.4778C12.67 12.3078 12.4 11.9778 12.28 11.9978C10.79 12.2178 9.30004 12.4778 7.82004 12.7578C7.66004 12.7878 7.51004 12.9978 7.36004 13.1278L7.34003 13.1378ZM19.67 20.3978C19.38 20.7978 19.21 20.9978 19.08 21.2178C18.83 21.6378 18.59 22.0578 18.35 22.4778C18.98 22.5178 19.6 22.5478 20.23 22.5878C20.28 22.5878 20.36 22.5878 20.38 22.5678C20.49 22.4378 20.69 22.2378 20.66 22.1678C20.39 21.6178 20.07 21.0878 19.68 20.3978H19.67Z" fill="#502F15"/>
</svg>
