<svg width="34" height="33" viewBox="0 0 34 33" fill="none" xmlns="http://www.w3.org/2000/svg">
<path d="M29.32 12.3501C29.82 12.3701 30.34 12.3301 30.82 12.4201C32.08 12.6501 32.72 13.4201 32.79 14.5301C32.86 15.5001 32.9 16.4801 32.82 17.4601C32.6 20.3901 32.35 23.3301 32.02 26.2601C31.9 27.3701 31.61 28.4901 31.27 29.5901C30.92 30.7301 29.16 31.3001 27.95 30.9501C27.17 30.7201 26.22 30.8201 25.34 30.8701C23.65 30.9601 21.97 31.1301 20.28 31.2601C19.59 31.3101 18.91 31.3601 18.22 31.4101C16.85 31.5101 16.24 31.0801 15.93 29.8801C15.78 29.2801 15.81 28.6301 15.76 28.0001C15.68 27.9801 15.61 27.9601 15.53 27.9401C15.15 28.4101 14.75 28.8701 14.38 29.3501C13.4 30.6301 12.12 31.5601 10.46 32.0301C9.82003 32.2101 9.30003 32.1301 8.82003 31.7301C7.59003 30.7201 6.75002 29.4601 6.08002 28.1101C5.79002 27.5401 5.40003 27.5801 4.88003 27.5801C4.35003 27.5801 3.81003 27.5801 3.31003 27.4801C2.61003 27.3201 1.95003 27.0601 1.16003 26.8101C2.35003 25.3901 3.87003 24.1101 5.53003 22.8401C4.09003 22.3701 2.68002 21.9101 1.15002 21.4001C2.71002 20.3201 4.15003 19.3201 5.73003 18.2401C4.54003 17.8301 3.46003 17.4501 2.30003 17.0501C2.83003 16.6801 3.37003 16.3001 3.92003 15.9301C4.47003 15.5601 4.81003 15.3001 4.32003 14.6201C3.36003 13.2801 2.73003 11.8001 3.10003 10.0401C3.33003 8.92008 4.28003 8.40008 5.26003 9.06008C6.35003 9.79008 7.35003 10.6201 8.38003 11.4001C8.57003 11.6601 8.71003 11.9601 8.96003 12.1501C9.14003 12.2901 9.47003 12.2701 9.74003 12.3201C9.81003 12.1101 9.97002 11.8801 9.92002 11.7001C9.83002 11.3801 9.62002 11.1001 9.47002 10.8101C9.38002 10.2301 9.28003 9.64008 9.18003 9.02008C7.97003 8.77008 6.44003 9.39008 5.39003 8.51008C4.46003 7.73008 3.68002 6.81008 2.75002 5.86008C4.14002 5.41008 5.44003 5.07008 6.66003 4.57008C8.46003 3.84008 10.22 3.03008 11.95 2.18008C12.38 1.97008 12.65 1.47008 13.03 1.08008C14.08 1.48008 15.31 1.82008 16.37 2.38008C17.75 3.11008 17.76 5.07008 16.37 6.05008C15.37 6.76008 14.19 7.27008 12.84 8.00008C13.13 8.19008 13.43 8.40008 13.74 8.60008C13.96 8.73008 14.2 8.85008 14.42 8.97008C14.56 8.76008 14.71 8.55008 14.9 8.27008C15.4 8.27008 15.99 8.31008 16.57 8.25008C16.78 8.23008 17.11 8.01008 17.17 7.84008C17.42 7.07008 17.6 6.29008 17.82 5.43008C18.05 5.43008 18.34 5.43008 18.62 5.43008C19.84 5.43008 19.82 5.58008 19.89 4.34008C19.93 3.70008 19.91 3.06008 19.92 2.22008C21.05 2.16008 22.33 2.03008 23.6 2.04008C24.65 2.04008 25.15 2.88008 25.03 4.14008C24.97 4.81008 25.22 5.03008 25.93 4.83008C26.14 4.77008 26.42 4.49008 26.43 4.32008C26.49 3.47008 26.46 2.62008 26.47 1.63008C26.96 1.51008 27.58 1.30008 28.2 1.23008C28.89 1.15008 29.6 1.11008 30.27 1.21008C31.31 1.35008 31.82 2.05008 31.66 3.17008C31.55 3.97008 31.68 4.48008 32.54 4.88008C34.15 5.64008 34.18 7.04008 33.56 8.37008C33.23 9.07008 32.51 9.39008 31.73 9.57008C31.37 9.66008 31.11 9.78008 31.03 10.2101C30.87 11.0501 30.19 11.5601 29.31 11.8601C28.41 12.0901 27.57 12.0201 26.77 11.6701C26.56 11.3101 26.42 10.9101 26.13 10.6001C25.96 10.4101 25.57 10.2701 25.29 10.3001C24.96 10.3301 24.45 10.5101 24.34 10.7401C23.72 11.9801 21.89 12.6901 20.66 12.0301C20.07 11.7101 19.62 11.2001 19.12 10.7701C18.52 11.3601 17.89 12.0501 17.17 12.6501C16.45 13.2501 15.63 13.7701 14.9 14.2901C15.55 15.2601 16.2 16.2401 16.85 17.2201C17.1 16.0901 17.21 14.9901 17.29 13.8901C17.32 13.4201 17.51 13.1501 18.08 13.0601C18.97 12.9201 19.88 12.5201 20.69 13.1401C20.82 13.2401 21.08 13.2501 21.28 13.2401C21.91 13.2101 22.54 13.1701 23.17 13.0901C24.13 12.9701 25.08 12.8001 26.04 12.6601C27.11 12.5601 28.19 12.4601 29.26 12.3601L29.32 12.3501ZM11.3 19.7001C10.72 20.0601 10.2 20.3901 9.67002 20.7101C9.22002 20.9801 9.24003 21.1501 9.73003 21.3001C10.16 21.4201 10.57 21.5901 11.11 21.7901C11.17 21.0901 11.23 20.4501 11.29 19.7001H11.3ZM27.55 19.3101C27.66 18.6801 27.77 18.1101 27.87 17.5201H26.71C26.28 19.1901 26.36 19.3501 27.55 19.3101ZM7.45003 26.3301C9.05003 26.5601 10.42 25.4801 10.23 24.3801C9.35003 24.9901 8.47003 25.6101 7.45003 26.3301ZM27.16 24.1201C27.1 24.0501 27.04 23.9801 26.99 23.9101C26.67 24.0601 26.21 24.1601 26.06 24.3901C25.88 24.6801 25.89 25.0901 25.96 25.4301C25.99 25.6101 26.3 25.8301 26.5 25.8301C26.66 25.8301 26.98 25.5601 27.03 25.3801C27.14 24.9701 27.13 24.5401 27.16 24.1201ZM21.54 25.2901C21.54 25.2901 21.48 25.2701 21.45 25.2701C21.46 25.1501 21.46 25.0401 21.48 24.9201C21.54 24.5301 21.43 24.2801 20.92 24.2901C20.42 24.2901 20.36 24.5801 20.35 24.9101C20.35 25.1701 20.29 25.4301 20.29 25.6801C20.29 26.0801 20.81 26.3601 21.13 26.1001C21.35 25.9201 21.4 25.5701 21.53 25.3001L21.54 25.2901ZM22.01 18.8801C22.08 18.5501 22.14 18.2001 21.53 18.1901C20.98 18.1901 20.91 18.4701 20.92 18.8401C20.92 19.1801 20.75 19.5801 21.37 19.6101C21.97 19.6401 22.02 19.3001 22.01 18.8701V18.8801ZM8.80003 17.0301C9.59003 17.3701 10.29 17.6601 11.12 18.0101C10.67 16.6801 10.12 16.4601 8.80003 17.0301Z" fill="white"/>
<path d="M27.87 11.11C28.37 11.13 28.88 11.09 29.36 11.18C30.61 11.41 31.24 12.16 31.31 13.26C31.37 14.22 31.42 15.18 31.34 16.15C31.12 19.04 30.87 21.93 30.55 24.82C30.43 25.92 30.14 27.02 29.81 28.1C29.47 29.22 27.72 29.79 26.52 29.44C25.75 29.22 24.81 29.31 23.94 29.36C22.27 29.45 20.6 29.61 18.93 29.74C18.25 29.79 17.57 29.84 16.89 29.89C15.53 29.99 14.92 29.57 14.63 28.38C14.48 27.79 14.52 27.14 14.47 26.52C14.39 26.5 14.32 26.48 14.24 26.46C13.86 26.92 13.46 27.38 13.1 27.85C12.13 29.11 10.86 30.03 9.22 30.49C8.59 30.67 8.07 30.58 7.59 30.19C6.38 29.19 5.54 27.95 4.88 26.63C4.6 26.06 4.21 26.11 3.69 26.11C3.17 26.11 2.63001 26.11 2.14001 26.01C1.45001 25.85 0.790002 25.6 0.0100021 25.35C1.18 23.95 2.7 22.69 4.34 21.44C2.91 20.97 1.52 20.52 0 20.02C1.55 18.96 2.98001 17.97 4.53001 16.9C3.35001 16.49 2.29001 16.13 1.14001 15.73C1.66001 15.37 2.20001 14.99 2.74001 14.63C3.29001 14.27 3.62001 14.01 3.14001 13.34C2.19001 12.02 1.57 10.56 1.93 8.83C2.16 7.72 3.09001 7.22 4.07001 7.86C5.15001 8.57 6.14 9.4 7.16 10.17C7.35 10.42 7.48 10.73 7.73 10.91C7.91 11.04 8.24 11.03 8.5 11.08C8.57 10.87 8.73 10.64 8.68 10.47C8.6 10.16 8.39 9.88 8.23 9.59C8.14 9.01 8.04 8.44 7.94 7.83C6.75 7.59 5.23 8.19 4.19 7.33C3.27 6.56 2.5 5.65 1.58 4.72C2.95 4.27 4.24001 3.94 5.46001 3.45C7.24001 2.73 8.98 1.93 10.7 1.09C11.13 0.88 11.4 0.4 11.77 0C12.81 0.39 14.03 0.729999 15.08 1.28C16.45 2 16.45 3.93 15.08 4.9C14.09 5.6 12.92 6.1 11.59 6.83C11.88 7.02 12.17 7.23 12.48 7.42C12.7 7.55 12.93 7.66 13.16 7.78C13.3 7.57 13.44 7.36 13.63 7.09C14.13 7.09 14.71 7.13 15.28 7.07C15.49 7.05 15.82 6.83 15.87 6.66C16.12 5.91 16.29 5.13 16.51 4.29C16.74 4.29 17.02 4.29 17.3 4.29C18.51 4.29 18.48 4.44 18.56 3.22C18.6 2.59 18.58 1.96 18.59 1.14C19.71 1.08 20.98 0.949999 22.24 0.959999C23.28 0.959999 23.78 1.79 23.66 3.03C23.6 3.69 23.85 3.91 24.55 3.71C24.75 3.65 25.04 3.38 25.05 3.21C25.11 2.37 25.08 1.53 25.09 0.549999C25.58 0.429999 26.19 0.219998 26.81 0.149998C27.49 0.0699977 28.2 0.0399972 28.86 0.129997C29.89 0.269997 30.39 0.959998 30.24 2.06C30.13 2.85 30.26 3.35 31.11 3.74C32.71 4.49 32.74 5.87 32.12 7.18C31.79 7.87 31.08 8.18 30.3 8.36C29.94 8.44 29.69 8.56 29.61 8.99C29.45 9.82 28.78 10.32 27.9 10.62C27.01 10.85 26.18 10.78 25.39 10.44C25.19 10.08 25.04 9.69 24.76 9.39C24.59 9.2 24.21 9.06 23.93 9.09C23.6 9.12 23.1 9.3 22.99 9.52C22.37 10.74 20.56 11.44 19.35 10.79C18.76 10.47 18.32 9.97 17.82 9.55C17.22 10.13 16.6 10.81 15.89 11.4C15.17 12 14.36 12.5 13.64 13.02C14.28 13.98 14.92 14.94 15.57 15.91C15.82 14.8 15.93 13.71 16 12.63C16.03 12.16 16.22 11.9 16.78 11.81C17.66 11.67 18.56 11.28 19.36 11.89C19.49 11.99 19.75 12 19.95 11.99C20.57 11.96 21.2 11.92 21.82 11.85C22.77 11.73 23.72 11.57 24.66 11.43C25.72 11.33 26.79 11.23 27.85 11.14L27.87 11.11ZM10.02 18.35C9.45 18.7 8.93 19.03 8.41 19.35C7.96 19.62 7.99 19.79 8.47 19.93C8.89 20.05 9.3 20.22 9.84 20.41C9.9 19.72 9.96 19.09 10.02 18.35ZM26.11 17.96C26.22 17.34 26.32 16.77 26.43 16.2H25.28C24.86 17.84 24.93 18 26.11 17.96ZM6.21001 24.88C7.79001 25.11 9.15001 24.04 8.96001 22.96C8.09001 23.57 7.22001 24.17 6.21001 24.88ZM25.73 22.71C25.67 22.64 25.61 22.57 25.56 22.5C25.24 22.65 24.78 22.74 24.64 22.97C24.46 23.25 24.48 23.66 24.54 23.99C24.57 24.17 24.87 24.38 25.08 24.39C25.24 24.39 25.56 24.12 25.6 23.95C25.71 23.55 25.7 23.12 25.73 22.71ZM20.17 23.86C20.17 23.86 20.11 23.84 20.08 23.84C20.09 23.72 20.09 23.61 20.11 23.49C20.17 23.11 20.06 22.86 19.56 22.87C19.07 22.87 19.01 23.15 19 23.48C19 23.73 18.94 23.99 18.94 24.24C18.94 24.64 19.45 24.91 19.78 24.65C20 24.47 20.05 24.13 20.17 23.86ZM20.64 17.54C20.71 17.22 20.77 16.87 20.16 16.86C19.62 16.86 19.55 17.14 19.55 17.5C19.55 17.83 19.38 18.23 20 18.26C20.6 18.29 20.65 17.96 20.64 17.53V17.54ZM7.55 15.71C8.33 16.04 9.02001 16.33 9.85001 16.68C9.40001 15.37 8.86 15.15 7.55 15.71Z" fill="#502F15"/>
</svg>
