<svg width="33" height="32" viewBox="0 0 33 32" fill="none" xmlns="http://www.w3.org/2000/svg">
<path d="M11.14 20.6899C10.5 20.6499 9.82997 20.6699 9.21997 20.5499C7.72997 20.2699 6.99997 19.2299 7.23997 17.8299C7.40997 16.8299 7.58996 15.8299 7.75996 14.8699C6.45996 14.3299 5.06997 13.7499 3.65997 13.1699C4.61997 12.2799 5.58997 11.4299 6.49997 10.5299C8.31997 8.71993 10.17 6.90993 11.88 5.01993C12.52 4.30993 12.82 3.37993 13.34 2.42993C14.51 2.60993 15.84 2.73993 17.1 3.02993C18.12 3.25993 18.58 4.15993 18.45 5.12993C18.41 5.40993 18.53 5.92993 18.58 5.91993C19.09 5.84993 19.78 5.82993 20.07 5.53993C20.87 4.73993 21.49 3.80993 22.2 2.93993C22.31 2.79993 22.52 2.59993 22.63 2.60993C23.65 2.69993 24.68 2.76993 25.65 2.96993C26.79 3.20993 27.53 3.83993 27.58 4.96993C27.58 5.09993 27.65 5.20993 27.67 5.29993C28.94 5.29993 30.17 5.27993 31.4 5.29993C32.01 5.30993 32.47 6.08993 32.4 6.83993C32.31 7.75993 31.68 8.38993 30.41 8.63993C29.14 8.88993 27.85 9.01993 26.57 9.19993C26.15 9.25993 25.73 9.30993 25.22 9.53993C25.34 9.59993 25.45 9.71993 25.58 9.71993C27.07 9.69993 28.56 9.63993 30.04 9.61993C30.78 9.60993 30.7 10.1899 30.76 10.5999C30.82 11.0299 30.56 11.4699 30.03 11.6199C29.2 11.8599 28.35 12.0099 27.51 12.1899C27.45 12.2299 27.39 12.2599 27.33 12.2999C27.28 12.2999 27.24 12.2999 27.19 12.3199C26.48 12.3799 25.77 12.4399 25.07 12.4999C25.07 12.5999 25.06 12.6999 25.05 12.7999C25.74 12.7599 26.44 12.7199 27.13 12.6899C27.84 12.6899 28.56 12.6499 29.25 12.7099C29.9 12.7699 30.09 13.2599 30.12 13.7699C30.15 14.2699 29.76 14.6899 29.24 14.8299C28.11 15.1199 26.97 15.3099 25.82 15.5099C25.29 15.6099 24.76 15.6399 24.23 15.7099L24.13 15.8899C24.39 15.9499 24.64 16.0799 24.91 16.0699C26.47 15.9999 28.04 15.8699 29.59 15.8299C30.4 15.8099 30.64 16.3999 30.72 16.9899C30.8 17.5599 30.63 18.1699 29.89 18.4399C29.13 18.7199 28.33 18.9199 27.54 19.0399C26.11 19.2599 24.67 19.4099 23.24 19.5599C22.78 19.6099 22.33 19.5699 21.87 19.5999C21.53 19.6199 21.19 19.6799 20.84 19.7299C19.66 19.8299 18.49 19.9299 17.31 20.0299C16.79 20.0699 16.28 20.1199 15.76 20.1599C14.69 20.1999 13.63 20.2099 12.56 20.2999C12.08 20.3399 11.6 20.5599 11.12 20.6999L11.14 20.6899ZM17.74 12.9799C16.83 12.9799 16.08 12.9999 15.33 12.9799C14.82 12.9599 14.51 13.1399 14.36 13.6099C15.34 14.0699 16.42 13.5399 17.44 13.4699C17.51 13.4699 17.59 13.2199 17.73 12.9799H17.74ZM14.68 10.4699C15.98 10.3699 17.14 10.2799 18.3 10.1999C17.69 9.46993 15.23 9.65993 14.68 10.4699ZM17.46 16.6899C17.46 16.5699 17.47 16.4499 17.48 16.3299C16.28 16.4799 15.12 16.0699 13.9 16.5699C13.9 16.6899 13.88 16.7999 13.87 16.9199C15.07 16.8399 16.26 16.7699 17.46 16.6899Z" fill="white"/>
<path d="M20.96 20.0999C22.82 19.9299 24.67 19.7699 26.53 19.5799C28.35 19.3999 29.91 20.4199 30.01 21.9599C30.07 22.8999 29.49 23.7299 28.59 24.3399C27.51 25.0799 26.37 25.7399 25.23 26.4599C25.96 26.7599 26.74 27.0699 27.52 27.3899C27.75 27.4799 28.01 27.5499 28.2 27.6899C28.64 28.0099 29.5 28.1599 29.27 28.8499C28.98 29.7199 28.45 30.5299 27.31 30.9299C25.9 31.4199 24.68 31.1099 23.47 30.8299C21.76 30.4199 20.09 29.9199 18.38 29.4999C18.11 29.4299 17.73 29.4499 17.44 29.5499C14.62 30.4999 11.75 31.0999 8.86998 31.5899C6.83998 31.9299 5.06998 31.6999 3.86998 30.3099C3.65998 30.0699 3.52998 29.7799 3.33998 29.5199C3.01998 29.0799 2.67998 28.6399 2.28998 28.1199C4.99998 27.7399 7.73998 27.3499 10.48 26.9599C10.5 26.8799 10.52 26.7899 10.54 26.7099C9.86998 26.4899 9.18999 26.2799 8.51999 26.0499C7.97999 25.8599 7.42998 25.6699 6.92998 25.4099C6.66998 25.2799 6.51999 24.9999 6.32999 24.7899C6.21999 24.6699 6.15998 24.4999 6.00998 24.4299C5.14998 24.0299 4.97999 23.5399 5.43999 22.6599C5.58999 22.3699 5.85999 22.0799 5.90999 21.7999C6.01999 21.1199 6.52998 21.1299 6.97998 21.2199C8.31998 21.5099 9.70998 21.2199 11.09 21.0499C11.34 21.0499 11.58 21.0899 11.83 21.0699C13.12 20.9399 14.41 20.7899 15.71 20.6499C16.23 20.5999 16.75 20.5499 17.26 20.4999C17.41 20.5099 17.55 20.5499 17.7 20.5299C18.79 20.3999 19.88 20.2499 20.97 20.1099L20.96 20.0999ZM21.17 23.8599C20.02 23.9399 18.88 24.0099 17.73 24.0899C18.9 24.9699 20.14 24.8299 21.17 23.8599Z" fill="white"/>
<path d="M9.71992 18.8298C9.07992 18.7898 8.41993 18.8098 7.81993 18.6898C6.33993 18.4098 5.61993 17.3898 5.84993 16.0098C6.01993 15.0198 6.19992 14.0398 6.35992 13.0898C5.06992 12.5598 3.69993 11.9899 2.29993 11.4099C3.24993 10.5399 4.20992 9.69984 5.10992 8.80984C6.90992 7.01985 8.73992 5.24985 10.4299 3.38985C11.0699 2.68985 11.3599 1.76984 11.8799 0.839844C13.0399 1.01984 14.3599 1.14985 15.5999 1.42985C16.6099 1.65985 17.0599 2.53985 16.9299 3.49985C16.8899 3.76985 17.0099 4.27985 17.0599 4.27985C17.5599 4.20985 18.2499 4.18985 18.5399 3.90985C19.3299 3.11985 19.9499 2.19984 20.6499 1.33984C20.7599 1.20984 20.9699 1.00984 21.0799 1.01984C22.0899 1.10984 23.1099 1.17984 24.0799 1.37984C25.2099 1.60984 25.9399 2.23985 25.9899 3.34985C25.9899 3.46985 26.0599 3.58985 26.0799 3.67985C27.3299 3.67985 28.5599 3.65985 29.7799 3.67985C30.3799 3.68985 30.8399 4.45984 30.7699 5.19984C30.6799 6.09984 30.0599 6.72985 28.7999 6.96985C27.5399 7.20985 26.2699 7.34985 24.9999 7.52985C24.5799 7.58985 24.1599 7.63985 23.6599 7.85985C23.7799 7.91985 23.8899 8.03985 24.0099 8.02985C25.4799 8.00985 26.9599 7.94985 28.4299 7.92985C29.1599 7.91985 29.0799 8.48985 29.1399 8.89985C29.1999 9.31985 28.9399 9.75985 28.4199 9.90985C27.5999 10.1399 26.7599 10.2898 25.9199 10.4698C25.8599 10.4998 25.7999 10.5398 25.7399 10.5698C25.6899 10.5698 25.6499 10.5698 25.5999 10.5898C24.8999 10.6498 24.1999 10.7098 23.4999 10.7598C23.4999 10.8598 23.4899 10.9598 23.4799 11.0598C24.1699 11.0198 24.8499 10.9898 25.5399 10.9498C26.2399 10.9498 26.9599 10.9098 27.6399 10.9698C28.2799 11.0298 28.4699 11.5098 28.4999 12.0098C28.5299 12.4998 28.1399 12.9199 27.6299 13.0499C26.5099 13.3299 25.3799 13.5198 24.2499 13.7198C23.7299 13.8098 23.1999 13.8499 22.6799 13.9099L22.5899 14.0798C22.8499 14.1398 23.0999 14.2698 23.3599 14.2598C24.8999 14.1898 26.4599 14.0598 27.9999 14.0198C28.7999 13.9998 29.0399 14.5899 29.1199 15.1599C29.1999 15.7199 29.0299 16.3198 28.2999 16.5898C27.5499 16.8598 26.7499 17.0598 25.9799 17.1798C24.5599 17.3998 23.1399 17.5398 21.7199 17.6898C21.2699 17.7398 20.8199 17.6999 20.3699 17.7299C20.0299 17.7499 19.6899 17.8098 19.3499 17.8498C18.1799 17.9498 17.0199 18.0498 15.8499 18.1498C15.3399 18.1898 14.8299 18.2398 14.3199 18.2798C13.2599 18.3198 12.2099 18.3298 11.1499 18.4198C10.6799 18.4598 10.1999 18.6698 9.71992 18.8098V18.8298ZM16.2499 11.2398C15.3499 11.2398 14.5999 11.2598 13.8699 11.2398C13.3699 11.2198 13.0599 11.3898 12.9099 11.8598C13.8799 12.3098 14.9499 11.7898 15.9599 11.7198C16.0299 11.7198 16.1099 11.4698 16.2499 11.2398ZM13.2199 8.76984C14.5099 8.66984 15.6599 8.58985 16.8099 8.49985C16.2099 7.78985 13.7699 7.96984 13.2199 8.76984ZM15.9699 14.8898C15.9699 14.7698 15.9799 14.6598 15.9899 14.5398C14.7999 14.6898 13.6499 14.2898 12.4399 14.7698C12.4399 14.8798 12.4199 14.9998 12.4099 15.1098C13.5899 15.0398 14.7799 14.9598 15.9599 14.8898H15.9699Z" fill="#502F15"/>
<path d="M19.44 18.25C21.28 18.08 23.12 17.92 24.96 17.74C26.76 17.56 28.2999 18.57 28.3999 20.09C28.4599 21.02 27.88 21.83 27 22.44C25.93 23.17 24.8 23.82 23.67 24.53C24.39 24.82 25.17 25.13 25.94 25.44C26.17 25.53 26.43 25.6 26.61 25.73C27.05 26.05 27.9 26.19 27.67 26.87C27.38 27.73 26.8599 28.53 25.7299 28.92C24.3299 29.4 23.1299 29.1 21.9299 28.82C20.2299 28.42 18.58 27.93 16.89 27.5C16.62 27.43 16.25 27.45 15.96 27.55C13.17 28.49 10.32 29.08 7.46996 29.56C5.44996 29.9 3.69996 29.67 2.51996 28.3C2.30996 28.06 2.17995 27.78 1.99995 27.52C1.67995 27.08 1.34996 26.65 0.959961 26.14C3.63996 25.76 6.35996 25.38 9.06996 25C9.08996 24.92 9.10996 24.84 9.12996 24.75C8.45996 24.53 7.78996 24.33 7.12996 24.1C6.58996 23.91 6.04995 23.73 5.55995 23.47C5.29995 23.34 5.14996 23.07 4.95996 22.86C4.84996 22.74 4.78995 22.57 4.63995 22.5C3.78995 22.11 3.61996 21.62 4.07996 20.75C4.22996 20.46 4.48995 20.18 4.53995 19.9C4.64995 19.23 5.15996 19.24 5.59996 19.33C6.91996 19.62 8.29995 19.33 9.66995 19.16C9.91995 19.16 10.16 19.2 10.41 19.18C11.69 19.05 12.97 18.91 14.25 18.77C14.76 18.72 15.2799 18.67 15.7899 18.62C15.9299 18.63 16.08 18.67 16.22 18.65C17.3 18.52 18.38 18.38 19.46 18.24L19.44 18.25ZM19.6499 21.96C18.5099 22.04 17.38 22.11 16.24 22.19C17.4 23.06 18.6299 22.92 19.6499 21.96Z" fill="#502F15"/>
</svg>
