<svg width="29" height="31" viewBox="0 0 29 31" fill="none" xmlns="http://www.w3.org/2000/svg">
<path d="M17.719 23.5976C17.319 24.9176 17.059 26.2076 16.539 27.4076C15.929 28.7876 14.909 29.9276 13.209 30.4876C12.479 30.7276 11.909 30.5576 11.419 30.1976C9.54896 28.8076 8.16896 27.0576 7.03896 25.1476C6.74896 24.6576 6.48896 24.1376 6.23896 23.6276C6.01896 23.1676 5.73897 23.1876 5.32897 23.5276C5.04897 23.7676 4.73897 23.9976 4.40897 24.1676C2.87897 24.9376 1.37896 24.4776 1.01896 22.9976C0.80896 22.1476 0.818967 21.1976 0.978967 20.3076C1.21897 18.9976 1.65897 17.7076 2.04897 16.4076C2.44897 15.0776 2.91896 13.7576 3.30896 12.4176C3.64896 11.2476 3.98896 10.0776 4.20896 8.89761C4.38896 7.97761 4.40896 7.05761 4.45896 6.12761C4.46896 5.87761 4.35897 5.63761 4.25897 5.21761C5.61897 5.17761 6.96897 5.00761 8.25897 5.12761C9.34897 5.22761 9.98896 6.16761 9.83896 7.15761C9.45896 9.68761 9.08897 12.2176 8.54897 14.7276C8.11897 16.7276 7.42896 18.6976 6.83896 20.6776C6.72896 21.0376 6.49896 21.3776 6.26896 21.8276C7.42896 22.3176 8.46896 23.0576 9.88896 23.1876C10.379 23.2276 10.549 22.9876 10.609 22.6576C10.799 21.5876 11.019 20.5176 11.119 19.4476C11.539 14.7276 11.939 10.0076 12.289 5.29761C12.379 4.14761 12.289 2.98761 11.349 2.02761C12.689 1.69761 13.969 1.20762 15.249 1.10762C17.419 0.937616 18.979 1.90761 18.949 4.06761C18.949 4.32761 19.039 4.57761 19.109 4.90761C19.489 4.77761 19.849 4.71761 20.129 4.54761C22.769 2.93761 25.049 4.15762 26.139 5.76762C27.189 7.31762 27.759 9.03761 27.909 10.8976C28.009 12.0676 28.289 13.2176 28.299 14.3976C28.309 15.7176 28.179 17.0576 27.989 18.3876C27.829 19.5276 27.579 20.6776 27.239 21.7976C26.709 23.5776 25.559 25.0376 23.679 25.9276C21.779 26.8376 20.759 26.9576 19.359 25.3376C18.919 24.8276 18.519 24.2976 18.079 23.7876C17.989 23.6876 17.809 23.6476 17.719 23.6076V23.5976ZM19.229 6.64761C19.159 6.70761 19.089 6.76761 19.009 6.81761C19.029 7.11761 19.089 7.41761 19.059 7.71761C18.739 11.4476 18.439 15.1676 18.049 18.8976C17.969 19.6776 18.269 20.0176 18.979 20.2576C19.749 20.5176 20.299 20.3476 20.609 19.6276C20.869 18.9976 21.149 18.3476 21.199 17.6976C21.309 16.1876 21.269 14.6776 21.329 13.1676C21.429 10.9676 20.669 9.00762 19.719 7.10762C19.629 6.91762 19.399 6.79761 19.229 6.63761V6.64761Z" fill="white"/>
<path d="M16.699 22.1674C16.299 23.4674 16.049 24.7374 15.529 25.9274C14.929 27.2874 13.909 28.4174 12.229 28.9674C11.499 29.2074 10.939 29.0374 10.459 28.6874C8.59897 27.3174 7.24898 25.5974 6.11898 23.7074C5.82898 23.2174 5.57898 22.7174 5.32898 22.2074C5.10898 21.7574 4.82898 21.7774 4.42898 22.1074C4.14898 22.3374 3.84897 22.5674 3.51897 22.7374C1.99897 23.4974 0.518979 23.0374 0.158979 21.5874C-0.0510209 20.7474 -0.0410218 19.8074 0.118978 18.9374C0.348978 17.6474 0.788976 16.3674 1.17898 15.0974C1.57898 13.7874 2.03898 12.4874 2.42898 11.1674C2.76898 10.0174 3.09898 8.85742 3.31898 7.69742C3.48898 6.79742 3.51898 5.87742 3.56898 4.96742C3.57898 4.71742 3.46898 4.47742 3.36898 4.06742C4.71898 4.02742 6.05898 3.85742 7.32898 3.97742C8.40898 4.07742 9.04898 4.99742 8.89898 5.97742C8.51898 8.46742 8.15898 10.9574 7.61898 13.4374C7.18898 15.4074 6.50897 17.3574 5.91897 19.3074C5.80897 19.6574 5.57897 19.9974 5.34897 20.4374C6.49897 20.9274 7.52898 21.6574 8.93898 21.7774C9.41898 21.8174 9.58898 21.5774 9.64898 21.2474C9.83898 20.1974 10.059 19.1374 10.149 18.0874C10.559 13.4374 10.959 8.78742 11.309 4.13742C11.389 3.00742 11.309 1.86742 10.379 0.917418C11.709 0.597418 12.969 0.10742 14.239 0.0174201C16.389 -0.14258 17.929 0.79742 17.909 2.92742C17.909 3.17742 17.999 3.42742 18.069 3.75742C18.449 3.62742 18.809 3.56742 19.079 3.39742C21.699 1.80742 23.949 3.01742 25.029 4.59742C26.069 6.12742 26.629 7.81742 26.789 9.64742C26.889 10.7974 27.159 11.9374 27.169 13.0874C27.179 14.3874 27.049 15.7074 26.859 17.0174C26.699 18.1374 26.449 19.2674 26.119 20.3774C25.599 22.1274 24.449 23.5674 22.589 24.4474C20.709 25.3374 19.689 25.4574 18.309 23.8574C17.879 23.3574 17.479 22.8274 17.039 22.3374C16.949 22.2374 16.769 22.1974 16.679 22.1574L16.699 22.1674ZM18.189 5.46742C18.119 5.52742 18.049 5.57742 17.979 5.63742C17.999 5.93742 18.059 6.22742 18.029 6.52742C17.709 10.1974 17.419 13.8674 17.029 17.5474C16.949 18.3174 17.249 18.6474 17.949 18.8874C18.709 19.1474 19.259 18.9774 19.559 18.2674C19.819 17.6474 20.089 16.9974 20.139 16.3674C20.249 14.8774 20.199 13.3974 20.269 11.9074C20.369 9.73742 19.619 7.80742 18.669 5.93742C18.579 5.75742 18.349 5.62742 18.189 5.47742V5.46742Z" fill="#502F15"/>
</svg>
