<svg width="30" height="29" viewBox="0 0 30 29" fill="none" xmlns="http://www.w3.org/2000/svg">
<path d="M2.35646 21.7114C4.66646 21.6914 7.07646 21.7114 9.49646 21.6514C12.1465 21.5814 14.8065 21.4414 17.4565 21.3414C20.2665 21.2314 23.0665 21.1814 25.8765 20.9914C27.5565 20.8814 28.7165 22.2314 28.5965 23.6414C28.5565 24.1314 28.4665 24.6314 28.3065 25.1114C27.9365 26.2114 26.8265 26.5914 25.8065 26.9014C23.9765 27.4614 22.1265 27.7614 20.2465 27.8014C18.0965 27.8514 15.9165 28.0814 13.7465 28.2214C12.7565 28.2814 11.7665 28.3414 10.7865 28.3714C8.53646 28.4414 6.28646 28.4714 4.03646 28.5614C2.21646 28.6314 1.19646 27.3014 1.04646 25.9014C0.936463 24.8814 1.40646 23.9914 1.86646 23.0614C2.09646 22.6014 2.21646 22.1114 2.36646 21.6914L2.35646 21.7114Z" fill="white"/>
<path d="M6.52647 2.88138C7.53647 2.81138 8.64647 2.74139 9.75647 2.67139C12.1765 2.52139 14.6065 2.37139 17.0265 2.21139C19.1165 2.07139 21.2165 1.91138 23.3065 1.77138C24.3665 1.70138 25.4365 1.64138 26.4965 1.61138C28.3265 1.56138 29.7265 2.99139 29.6065 4.75139C29.4965 6.44139 27.8865 7.78138 25.8465 7.95138C23.4265 8.15138 21.0065 8.34138 18.5765 8.54138C16.6365 8.69138 14.6965 8.86138 12.7565 8.98138C11.1865 9.07138 9.61647 9.10138 8.05647 9.15138C6.20647 9.20138 5.33647 7.93139 5.50647 6.53139C5.60647 5.73139 5.98647 4.92138 6.22647 4.11138C6.34647 3.71138 6.42647 3.30139 6.52647 2.89139V2.88138Z" fill="white"/>
<path d="M7.21648 12.4413C8.20648 12.3713 9.28648 12.3013 10.3765 12.2313C13.1265 12.0413 15.8865 11.8213 18.6365 11.6613C20.2865 11.5613 21.9365 11.5113 23.5865 11.4913C25.5665 11.4613 27.1565 13.2013 26.2665 15.4313C25.7165 16.8113 24.2165 17.5913 22.4365 17.6913C20.1465 17.8213 17.8465 18.0614 15.5465 18.2514C14.8865 18.3014 14.2265 18.3713 13.5765 18.4013C11.9065 18.4613 10.2265 18.5913 8.57648 18.5413C6.97648 18.4913 6.25648 17.4413 6.32648 16.2013C6.36648 15.4513 6.76648 14.6713 6.96648 13.9113C7.08648 13.4313 7.13648 12.9413 7.21648 12.4513V12.4413Z" fill="white"/>
<path d="M1.32648 19.8013C3.61648 19.7813 6.00648 19.8013 8.40648 19.7413C11.0265 19.6713 13.6665 19.5313 16.2865 19.4313C19.0665 19.3213 21.8365 19.2713 24.6265 19.0913C26.2865 18.9813 27.4365 20.3113 27.3165 21.7013C27.2765 22.1813 27.1865 22.6813 27.0265 23.1513C26.6565 24.2313 25.5565 24.6113 24.5465 24.9213C22.7265 25.4713 20.8965 25.7713 19.0365 25.8113C16.9065 25.8613 14.7465 26.0913 12.5965 26.2313C11.6165 26.2913 10.6365 26.3513 9.66648 26.3813C7.43648 26.4513 5.20648 26.4813 2.97648 26.5713C1.17648 26.6413 0.166474 25.3213 0.0164741 23.9513C-0.0935259 22.9513 0.366479 22.0713 0.826479 21.1513C1.05648 20.7013 1.17648 20.2213 1.32648 19.8013Z" fill="#502F15"/>
<path d="M5.4665 1.2413C6.4665 1.1813 7.56649 1.1013 8.66649 1.0313C11.0665 0.881298 13.4665 0.741293 15.8665 0.581293C17.9365 0.441293 20.0165 0.281293 22.0865 0.151293C23.1365 0.0812928 24.1965 0.0212989 25.2365 0.00129885C27.0465 -0.0487011 28.4365 1.3513 28.3165 3.0913C28.2065 4.7513 26.6165 6.0713 24.5965 6.2413C22.1965 6.4413 19.7965 6.6313 17.3965 6.8213C15.4765 6.9713 13.5465 7.1413 11.6265 7.2513C10.0665 7.3413 8.5165 7.3713 6.9665 7.4213C5.1365 7.4713 4.27649 6.22129 4.44649 4.83129C4.53649 4.04129 4.9165 3.2413 5.1565 2.4513C5.2765 2.0513 5.35649 1.6513 5.45649 1.2513L5.4665 1.2413Z" fill="#502F15"/>
<path d="M6.14649 10.6713C7.12649 10.6013 8.19648 10.5313 9.27648 10.4613C12.0065 10.2713 14.7365 10.0613 17.4565 9.90134C19.0965 9.80134 20.7265 9.76135 22.3565 9.73135C24.3165 9.70135 25.8965 11.4113 25.0165 13.6113C24.4665 14.9713 22.9865 15.7413 21.2265 15.8313C18.9565 15.9613 16.6765 16.2013 14.3965 16.3813C13.7465 16.4313 13.0965 16.5013 12.4465 16.5313C10.7965 16.5913 9.12649 16.7213 7.49649 16.6713C5.90649 16.6213 5.19648 15.5913 5.26648 14.3613C5.30648 13.6213 5.70649 12.8613 5.89649 12.1013C6.01649 11.6313 6.06649 11.1513 6.14649 10.6713Z" fill="#502F15"/>
</svg>
